<svg class="main-svg" xmlns="http://www.w3.org/2000/svg" xmlns:xlink="http://www.w3.org/1999/xlink" width="1500" height="1500" style="" viewBox="0 0 1500 1500"><rect x="0" y="0" width="1500" height="1500" style="fill: rgb(255, 255, 255); fill-opacity: 1;"/><defs id="defs-1ba2c1"><g class="clips"><clipPath id="clip1ba2c1xyplot" class="plotclip"><rect width="1246" height="1360"/></clipPath><clipPath class="axesclip" id="clip1ba2c1x"><rect x="80" y="0" width="1246" height="1500"/></clipPath><clipPath class="axesclip" id="clip1ba2c1y"><rect x="0" y="60" width="1500" height="1360"/></clipPath><clipPath class="axesclip" id="clip1ba2c1xy"><rect x="80" y="60" width="1246" height="1360"/></clipPath></g><g class="gradients"/><g class="patterns"/></defs><g class="bglayer"/><g class="layer-below"><g class="imagelayer"/><g class="shapelayer"/></g><g class="cartesianlayer"><g class="subplot xy"><g class="layer-subplot"><g class="shapelayer"/><g class="imagelayer"/></g><g class="minor-gridlayer"><g class="x"/><g class="y"/></g><g class="gridlayer"><g class="x"><path class="xgrid crisp" transform="translate(282.02,0)" d="M0,60v1360" style="stroke: rgb(255, 255, 255); stroke-opacity: 1; stroke-width: 1px;"/><path class="xgrid crisp" transform="translate(435.18,0)" d="M0,60v1360" style="stroke: rgb(255, 255, 255); stroke-opacity: 1; stroke-width: 1px;"/><path class="xgrid crisp" transform="translate(588.35,0)" d="M0,60v1360" style="stroke: rgb(255, 255, 255); stroke-opacity: 1; stroke-width: 1px;"/><path class="xgrid crisp" transform="translate(741.51,0)" d="M0,60v1360" style="stroke: rgb(255, 255, 255); stroke-opacity: 1; stroke-width: 1px;"/><path class="xgrid crisp" transform="translate(894.67,0)" d="M0,60v1360" style="stroke: rgb(255, 255, 255); stroke-opacity: 1; stroke-width: 1px;"/><path class="xgrid crisp" transform="translate(1047.83,0)" d="M0,60v1360" style="stroke: rgb(255, 255, 255); stroke-opacity: 1; stroke-width: 1px;"/><path class="xgrid crisp" transform="translate(1201,0)" d="M0,60v1360" style="stroke: rgb(255, 255, 255); stroke-opacity: 1; stroke-width: 1px;"/></g><g class="y"><path class="ygrid crisp" transform="translate(0,1301.12)" d="M80,0h1246" style="stroke: rgb(255, 255, 255); stroke-opacity: 1; stroke-width: 1px;"/><path class="ygrid crisp" transform="translate(0,1063.8600000000001)" d="M80,0h1246" style="stroke: rgb(255, 255, 255); stroke-opacity: 1; stroke-width: 1px;"/><path class="ygrid crisp" transform="translate(0,826.6)" d="M80,0h1246" style="stroke: rgb(255, 255, 255); stroke-opacity: 1; stroke-width: 1px;"/><path class="ygrid crisp" transform="translate(0,589.34)" d="M80,0h1246" style="stroke: rgb(255, 255, 255); stroke-opacity: 1; stroke-width: 1px;"/><path class="ygrid crisp" transform="translate(0,352.08)" d="M80,0h1246" style="stroke: rgb(255, 255, 255); stroke-opacity: 1; stroke-width: 1px;"/><path class="ygrid crisp" transform="translate(0,114.82)" d="M80,0h1246" style="stroke: rgb(255, 255, 255); stroke-opacity: 1; stroke-width: 1px;"/></g></g><g class="zerolinelayer"><path class="xzl zl crisp" transform="translate(128.86,0)" d="M0,60v1360" style="stroke: rgb(255, 255, 255); stroke-opacity: 1; stroke-width: 2px;"/></g><path class="xlines-below"/><path class="ylines-below"/><g class="overlines-below"/><g class="xaxislayer-below"/><g class="yaxislayer-below"/><g class="overaxes-below"/><g class="plot" transform="translate(80,60)" clip-path="url(#clip1ba2c1xyplot)"><g class="scatterlayer mlayer"><g class="trace scatter trace55e522" style="stroke-miterlimit: 2; opacity: 1;"><g class="fills"/><g class="errorbars"/><g class="lines"/><g class="points"><path class="point" transform="translate(277.93,872.56)" d="M13.15,0A13.15,13.15 0 1,1 0,-13.15A13.15,13.15 0 0,1 13.15,0Z" style="opacity: 0.7; stroke-width: 1px; fill: rgb(148, 103, 189); fill-opacity: 1; stroke: rgb(0, 0, 0); stroke-opacity: 1;"/><path class="point" transform="translate(829.65,261.29)" d="M9.49,0A9.49,9.49 0 1,1 0,-9.49A9.49,9.49 0 0,1 9.49,0Z" style="opacity: 0.7; stroke-width: 1px; fill: rgb(148, 103, 189); fill-opacity: 1; stroke: rgb(0, 0, 0); stroke-opacity: 1;"/><path class="point" transform="translate(848.64,77.37)" d="M8.38,0A8.38,8.38 0 1,1 0,-8.38A8.38,8.38 0 0,1 8.38,0Z" style="opacity: 0.7; stroke-width: 1px; fill: rgb(148, 103, 189); fill-opacity: 1; stroke: rgb(0, 0, 0); stroke-opacity: 1;"/><path class="point" transform="translate(564.65,1286.91)" d="M4.55,0A4.55,4.55 0 1,1 0,-4.55A4.55,4.55 0 0,1 4.55,0Z" style="opacity: 0.7; stroke-width: 1px; fill: rgb(148, 103, 189); fill-opacity: 1; stroke: rgb(0, 0, 0); stroke-opacity: 1;"/></g><g class="text"><g class="textpoint" transform="translate(0,-18.9)"><text x="277.93" y="872.56" text-anchor="middle" style="font-family: 'Open Sans', verdana, arial, sans-serif; font-size: 18px; fill: rgb(42, 63, 95); fill-opacity: 1; white-space: pre;"><tspan class="line" dy="0em" x="277.93" y="872.56">written</tspan><tspan class="line" dy="1.3em" x="277.93" y="872.56">conflict</tspan><tspan class="line" dy="2.6em" x="277.93" y="872.56">fabulous</tspan></text></g><g class="textpoint" transform="translate(0,-7.199999999999999)"><text x="829.65" y="261.29" text-anchor="middle" style="font-family: 'Open Sans', verdana, arial, sans-serif; font-size: 18px; fill: rgb(42, 63, 95); fill-opacity: 1; white-space: pre;"><tspan class="line" dy="0em" x="829.65" y="261.29">reservations</tspan><tspan class="line" dy="1.3em" x="829.65" y="261.29">linking</tspan></text></g><g class="textpoint" transform="translate(0,-7.199999999999999)"><text x="848.64" y="77.37" text-anchor="middle" style="font-family: 'Open Sans', verdana, arial, sans-serif; font-size: 18px; fill: rgb(42, 63, 95); fill-opacity: 1; white-space: pre;"><tspan class="line" dy="0em" x="848.64" y="77.37">interfaces</tspan><tspan class="line" dy="1.3em" x="848.64" y="77.37">neutral</tspan></text></g><g class="textpoint" transform="translate(0,-7.199999999999999)"><text x="564.65" y="1286.91" text-anchor="middle" style="font-family: 'Open Sans', verdana, arial, sans-serif; font-size: 18px; fill: rgb(42, 63, 95); fill-opacity: 1; white-space: pre;"><tspan class="line" dy="0em" x="564.65" y="1286.91">committees</tspan><tspan class="line" dy="1.3em" x="564.65" y="1286.91">parallel</tspan></text></g></g></g><g class="trace scatter tracea5481f" style="stroke-miterlimit: 2; opacity: 1;"><g class="fills"/><g class="errorbars"/><g class="lines"/><g class="points"><path class="point" transform="translate(851.01,977.76)" d="M12.94,0A12.94,12.94 0 1,1 0,-12.94A12.94,12.94 0 0,1 12.94,0Z" style="opacity: 0.7; stroke-width: 1px; fill: rgb(140, 86, 75); fill-opacity: 1; stroke: rgb(0, 0, 0); stroke-opacity: 1;"/><path class="point" transform="translate(524.5,206.52)" d="M10.99,0A10.99,10.99 0 1,1 0,-10.99A10.99,10.99 0 0,1 10.99,0Z" style="opacity: 0.7; stroke-width: 1px; fill: rgb(140, 86, 75); fill-opacity: 1; stroke: rgb(0, 0, 0); stroke-opacity: 1;"/><path class="point" transform="translate(878.53,689.16)" d="M9.62,0A9.62,9.62 0 1,1 0,-9.62A9.62,9.62 0 0,1 9.62,0Z" style="opacity: 0.7; stroke-width: 1px; fill: rgb(140, 86, 75); fill-opacity: 1; stroke: rgb(0, 0, 0); stroke-opacity: 1;"/><path class="point" transform="translate(982.94,1155.26)" d="M9.26,0A9.26,9.26 0 1,1 0,-9.26A9.26,9.26 0 0,1 9.26,0Z" style="opacity: 0.7; stroke-width: 1px; fill: rgb(140, 86, 75); fill-opacity: 1; stroke: rgb(0, 0, 0); stroke-opacity: 1;"/></g><g class="text"><g class="textpoint" transform="translate(0,-30.6)"><text x="851.01" y="977.76" text-anchor="middle" style="font-family: 'Open Sans', verdana, arial, sans-serif; font-size: 18px; fill: rgb(42, 63, 95); fill-opacity: 1; white-space: pre;"><tspan class="line" dy="0em" x="851.01" y="977.76">postcards</tspan><tspan class="line" dy="1.3em" x="851.01" y="977.76">looked</tspan><tspan class="line" dy="2.6em" x="851.01" y="977.76">republic</tspan><tspan class="line" dy="3.9000000000000004em" x="851.01" y="977.76">detector</tspan></text></g><g class="textpoint" transform="translate(0,4.5)"><text x="524.5" y="206.52" text-anchor="middle" style="font-family: 'Open Sans', verdana, arial, sans-serif; font-size: 18px; fill: rgb(42, 63, 95); fill-opacity: 1; white-space: pre;">michael tobacco</text></g><g class="textpoint" transform="translate(0,-18.9)"><text x="878.53" y="689.16" text-anchor="middle" style="font-family: 'Open Sans', verdana, arial, sans-serif; font-size: 18px; fill: rgb(42, 63, 95); fill-opacity: 1; white-space: pre;"><tspan class="line" dy="0em" x="878.53" y="689.16">filling</tspan><tspan class="line" dy="1.3em" x="878.53" y="689.16">volunteers</tspan><tspan class="line" dy="2.6em" x="878.53" y="689.16">academics</tspan></text></g><g class="textpoint" transform="translate(0,-7.199999999999999)"><text x="982.94" y="1155.26" text-anchor="middle" style="font-family: 'Open Sans', verdana, arial, sans-serif; font-size: 18px; fill: rgb(42, 63, 95); fill-opacity: 1; white-space: pre;"><tspan class="line" dy="0em" x="982.94" y="1155.26">celtic</tspan><tspan class="line" dy="1.3em" x="982.94" y="1155.26">automation</tspan></text></g></g></g><g class="trace scatter trace6fc9d0" style="stroke-miterlimit: 2; opacity: 1;"><g class="fills"/><g class="errorbars"/><g class="lines"/><g class="points"><path class="point" transform="translate(323.07,755.93)" d="M12.23,0A12.23,12.23 0 1,1 0,-12.23A12.23,12.23 0 0,1 12.23,0Z" style="opacity: 0.7; stroke-width: 1px; fill: rgb(188, 189, 34); fill-opacity: 1; stroke: rgb(0, 0, 0); stroke-opacity: 1;"/><path class="point" transform="translate(1172.16,711.18)" d="M10.32,0A10.32,10.32 0 1,1 0,-10.32A10.32,10.32 0 0,1 10.32,0Z" style="opacity: 0.7; stroke-width: 1px; fill: rgb(188, 189, 34); fill-opacity: 1; stroke: rgb(0, 0, 0); stroke-opacity: 1;"/><path class="point" transform="translate(438.22,116.5)" d="M9.04,0A9.04,9.04 0 1,1 0,-9.04A9.04,9.04 0 0,1 9.04,0Z" style="opacity: 0.7; stroke-width: 1px; fill: rgb(188, 189, 34); fill-opacity: 1; stroke: rgb(0, 0, 0); stroke-opacity: 1;"/></g><g class="text"><g class="textpoint" transform="translate(0,-7.199999999999999)"><text x="323.07" y="755.93" text-anchor="middle" style="font-family: 'Open Sans', verdana, arial, sans-serif; font-size: 18px; fill: rgb(42, 63, 95); fill-opacity: 1; white-space: pre;"><tspan class="line" dy="0em" x="323.07" y="755.93">enquiries</tspan><tspan class="line" dy="1.3em" x="323.07" y="755.93">implementation</tspan></text></g><g class="textpoint" transform="translate(0,-30.6)"><text x="1172.16" y="711.18" text-anchor="middle" style="font-family: 'Open Sans', verdana, arial, sans-serif; font-size: 18px; fill: rgb(42, 63, 95); fill-opacity: 1; white-space: pre;"><tspan class="line" dy="0em" x="1172.16" y="711.18">previously</tspan><tspan class="line" dy="1.3em" x="1172.16" y="711.18">standing</tspan><tspan class="line" dy="2.6em" x="1172.16" y="711.18">languages</tspan><tspan class="line" dy="3.9000000000000004em" x="1172.16" y="711.18">commands</tspan></text></g><g class="textpoint" transform="translate(0,-18.9)"><text x="438.22" y="116.5" text-anchor="middle" style="font-family: 'Open Sans', verdana, arial, sans-serif; font-size: 18px; fill: rgb(42, 63, 95); fill-opacity: 1; white-space: pre;"><tspan class="line" dy="0em" x="438.22" y="116.5">bangkok</tspan><tspan class="line" dy="1.3em" x="438.22" y="116.5">mining</tspan><tspan class="line" dy="2.6em" x="438.22" y="116.5">fascinating</tspan></text></g></g></g><g class="trace scatter traced7127f" style="stroke-miterlimit: 2; opacity: 1;"><g class="fills"/><g class="errorbars"/><g class="lines"/><g class="points"><path class="point" transform="translate(78.11,805.1)" d="M14.14,0A14.14,14.14 0 1,1 0,-14.14A14.14,14.14 0 0,1 14.14,0Z" style="opacity: 0.7; stroke-width: 1px; fill: rgb(44, 160, 44); fill-opacity: 1; stroke: rgb(0, 0, 0); stroke-opacity: 1;"/><path class="point" transform="translate(509.95,1198.97)" d="M11.94,0A11.94,11.94 0 1,1 0,-11.94A11.94,11.94 0 0,1 11.94,0Z" style="opacity: 0.7; stroke-width: 1px; fill: rgb(44, 160, 44); fill-opacity: 1; stroke: rgb(0, 0, 0); stroke-opacity: 1;"/><path class="point" transform="translate(925.81,927.73)" d="M5.58,0A5.58,5.58 0 1,1 0,-5.58A5.58,5.58 0 0,1 5.58,0Z" style="opacity: 0.7; stroke-width: 1px; fill: rgb(44, 160, 44); fill-opacity: 1; stroke: rgb(0, 0, 0); stroke-opacity: 1;"/></g><g class="text"><g class="textpoint" transform="translate(0,-7.199999999999999)"><text x="78.11" y="805.1" text-anchor="middle" style="font-family: 'Open Sans', verdana, arial, sans-serif; font-size: 18px; fill: rgb(42, 63, 95); fill-opacity: 1; white-space: pre;"><tspan class="line" dy="0em" x="78.11" y="805.1">announces</tspan><tspan class="line" dy="1.3em" x="78.11" y="805.1">independent</tspan></text></g><g class="textpoint" transform="translate(0,-7.199999999999999)"><text x="509.95" y="1198.97" text-anchor="middle" style="font-family: 'Open Sans', verdana, arial, sans-serif; font-size: 18px; fill: rgb(42, 63, 95); fill-opacity: 1; white-space: pre;"><tspan class="line" dy="0em" x="509.95" y="1198.97">reload</tspan><tspan class="line" dy="1.3em" x="509.95" y="1198.97">athletics</tspan></text></g><g class="textpoint" transform="translate(0,-7.199999999999999)"><text x="925.81" y="927.73" text-anchor="middle" style="font-family: 'Open Sans', verdana, arial, sans-serif; font-size: 18px; fill: rgb(42, 63, 95); fill-opacity: 1; white-space: pre;"><tspan class="line" dy="0em" x="925.81" y="927.73">several</tspan><tspan class="line" dy="1.3em" x="925.81" y="927.73">animated</tspan></text></g></g></g></g></g><g class="overplot"/><path class="xlines-above crisp" d="M0,0" style="fill: none;"/><path class="ylines-above crisp" d="M0,0" style="fill: none;"/><g class="overlines-above"/><g class="xaxislayer-above"><g class="xtick"><text text-anchor="middle" x="0" y="1439" transform="translate(128.86,0)" style="font-family: 'Open Sans', verdana, arial, sans-serif; font-size: 18px; fill: rgb(42, 63, 95); fill-opacity: 1; white-space: pre; opacity: 1;">0</text></g><g class="xtick"><text text-anchor="middle" x="0" y="1439" style="font-family: 'Open Sans', verdana, arial, sans-serif; font-size: 18px; fill: rgb(42, 63, 95); fill-opacity: 1; white-space: pre; opacity: 1;" transform="translate(282.02,0)">2</text></g><g class="xtick"><text text-anchor="middle" x="0" y="1439" style="font-family: 'Open Sans', verdana, arial, sans-serif; font-size: 18px; fill: rgb(42, 63, 95); fill-opacity: 1; white-space: pre; opacity: 1;" transform="translate(435.18,0)">4</text></g><g class="xtick"><text text-anchor="middle" x="0" y="1439" style="font-family: 'Open Sans', verdana, arial, sans-serif; font-size: 18px; fill: rgb(42, 63, 95); fill-opacity: 1; white-space: pre; opacity: 1;" transform="translate(588.35,0)">6</text></g><g class="xtick"><text text-anchor="middle" x="0" y="1439" style="font-family: 'Open Sans', verdana, arial, sans-serif; font-size: 18px; fill: rgb(42, 63, 95); fill-opacity: 1; white-space: pre; opacity: 1;" transform="translate(741.51,0)">8</text></g><g class="xtick"><text text-anchor="middle" x="0" y="1439" style="font-family: 'Open Sans', verdana, arial, sans-serif; font-size: 18px; fill: rgb(42, 63, 95); fill-opacity: 1; white-space: pre; opacity: 1;" transform="translate(894.67,0)">10</text></g><g class="xtick"><text text-anchor="middle" x="0" y="1439" style="font-family: 'Open Sans', verdana, arial, sans-serif; font-size: 18px; fill: rgb(42, 63, 95); fill-opacity: 1; white-space: pre; opacity: 1;" transform="translate(1047.83,0)">12</text></g><g class="xtick"><text text-anchor="middle" x="0" y="1439" style="font-family: 'Open Sans', verdana, arial, sans-serif; font-size: 18px; fill: rgb(42, 63, 95); fill-opacity: 1; white-space: pre; opacity: 1;" transform="translate(1201,0)">14</text></g></g><g class="yaxislayer-above"><g class="ytick"><text text-anchor="end" x="79" y="6.3" transform="translate(0,1301.12)" style="font-family: 'Open Sans', verdana, arial, sans-serif; font-size: 18px; fill: rgb(42, 63, 95); fill-opacity: 1; white-space: pre; opacity: 1;">4</text></g><g class="ytick"><text text-anchor="end" x="79" y="6.3" style="font-family: 'Open Sans', verdana, arial, sans-serif; font-size: 18px; fill: rgb(42, 63, 95); fill-opacity: 1; white-space: pre; opacity: 1;" transform="translate(0,1063.8600000000001)">6</text></g><g class="ytick"><text text-anchor="end" x="79" y="6.3" style="font-family: 'Open Sans', verdana, arial, sans-serif; font-size: 18px; fill: rgb(42, 63, 95); fill-opacity: 1; white-space: pre; opacity: 1;" transform="translate(0,826.6)">8</text></g><g class="ytick"><text text-anchor="end" x="79" y="6.3" style="font-family: 'Open Sans', verdana, arial, sans-serif; font-size: 18px; fill: rgb(42, 63, 95); fill-opacity: 1; white-space: pre; opacity: 1;" transform="translate(0,589.34)">10</text></g><g class="ytick"><text text-anchor="end" x="79" y="6.3" style="font-family: 'Open Sans', verdana, arial, sans-serif; font-size: 18px; fill: rgb(42, 63, 95); fill-opacity: 1; white-space: pre; opacity: 1;" transform="translate(0,352.08)">12</text></g><g class="ytick"><text text-anchor="end" x="79" y="6.3" style="font-family: 'Open Sans', verdana, arial, sans-serif; font-size: 18px; fill: rgb(42, 63, 95); fill-opacity: 1; white-space: pre; opacity: 1;" transform="translate(0,114.82)">14</text></g></g><g class="overaxes-above"/></g></g><g class="polarlayer"/><g class="smithlayer"/><g class="ternarylayer"/><g class="geolayer"/><g class="funnelarealayer"/><g class="pielayer"/><g class="iciclelayer"/><g class="treemaplayer"/><g class="sunburstlayer"/><g class="glimages"/><defs id="topdefs-1ba2c1"><g class="clips"/><clipPath id="legend1ba2c1"><rect width="137" height="145" x="0" y="0"/></clipPath></defs><g class="layer-above"><g class="imagelayer"/><g class="shapelayer"/></g><g class="infolayer"><g class="legend" pointer-events="all" transform="translate(1350.92,60)"><rect class="bg" shape-rendering="crispEdges" width="137" height="145" x="0" y="0" style="stroke: rgb(68, 68, 68); stroke-opacity: 1; fill: rgb(255, 255, 255); fill-opacity: 1; stroke-width: 0px;"/><g class="scrollbox" transform="" clip-path="url(#legend1ba2c1)"><text class="legendtitletext" text-anchor="start" x="2" y="28.6" style="font-family: 'Open Sans', verdana, arial, sans-serif; font-size: 22px; fill: rgb(42, 63, 95); fill-opacity: 1; white-space: pre;">cluster_name</text><g class="groups" transform=""><g class="traces" transform="translate(0,46.800000000000004)" style="opacity: 1;"><text class="legendtext" text-anchor="start" x="40" y="7.0200000000000005" style="font-family: 'Open Sans', verdana, arial, sans-serif; font-size: 18px; fill: rgb(42, 63, 95); fill-opacity: 1; white-space: pre;">Кластер 0</text><g class="layers" style="opacity: 1;"><g class="legendfill"/><g class="legendlines"/><g class="legendsymbols"><g class="legendpoints"><path class="scatterpts" transform="translate(20,0)" d="M6,0A6,6 0 1,1 0,-6A6,6 0 0,1 6,0Z" style="opacity: 0.7; stroke-width: 2px; fill: rgb(148, 103, 189); fill-opacity: 1; stroke: rgb(0, 0, 0); stroke-opacity: 1;"/></g></g></g><rect class="legendtoggle" x="0" y="-13.200000000000001" width="123.078125" height="26.400000000000002" style="fill: rgb(0, 0, 0); fill-opacity: 0;"/></g></g><g class="groups" transform=""><g class="traces" transform="translate(0,73.2)" style="opacity: 1;"><text class="legendtext" text-anchor="start" x="40" y="7.0200000000000005" style="font-family: 'Open Sans', verdana, arial, sans-serif; font-size: 18px; fill: rgb(42, 63, 95); fill-opacity: 1; white-space: pre;">Кластер 1</text><g class="layers" style="opacity: 1;"><g class="legendfill"/><g class="legendlines"/><g class="legendsymbols"><g class="legendpoints"><path class="scatterpts" transform="translate(20,0)" d="M6,0A6,6 0 1,1 0,-6A6,6 0 0,1 6,0Z" style="opacity: 0.7; stroke-width: 2px; fill: rgb(140, 86, 75); fill-opacity: 1; stroke: rgb(0, 0, 0); stroke-opacity: 1;"/></g></g></g><rect class="legendtoggle" x="0" y="-13.200000000000001" width="123.078125" height="26.400000000000002" style="fill: rgb(0, 0, 0); fill-opacity: 0;"/></g></g><g class="groups" transform=""><g class="traces" transform="translate(0,99.60000000000001)" style="opacity: 1;"><text class="legendtext" text-anchor="start" x="40" y="7.0200000000000005" style="font-family: 'Open Sans', verdana, arial, sans-serif; font-size: 18px; fill: rgb(42, 63, 95); fill-opacity: 1; white-space: pre;">Кластер 2</text><g class="layers" style="opacity: 1;"><g class="legendfill"/><g class="legendlines"/><g class="legendsymbols"><g class="legendpoints"><path class="scatterpts" transform="translate(20,0)" d="M6,0A6,6 0 1,1 0,-6A6,6 0 0,1 6,0Z" style="opacity: 0.7; stroke-width: 2px; fill: rgb(188, 189, 34); fill-opacity: 1; stroke: rgb(0, 0, 0); stroke-opacity: 1;"/></g></g></g><rect class="legendtoggle" x="0" y="-13.200000000000001" width="123.078125" height="26.400000000000002" style="fill: rgb(0, 0, 0); fill-opacity: 0;"/></g></g><g class="groups" transform=""><g class="traces" transform="translate(0,126.00000000000001)" style="opacity: 1;"><text class="legendtext" text-anchor="start" x="40" y="7.0200000000000005" style="font-family: 'Open Sans', verdana, arial, sans-serif; font-size: 18px; fill: rgb(42, 63, 95); fill-opacity: 1; white-space: pre;">Кластер 3</text><g class="layers" style="opacity: 1;"><g class="legendfill"/><g class="legendlines"/><g class="legendsymbols"><g class="legendpoints"><path class="scatterpts" transform="translate(20,0)" d="M6,0A6,6 0 1,1 0,-6A6,6 0 0,1 6,0Z" style="opacity: 0.7; stroke-width: 2px; fill: rgb(44, 160, 44); fill-opacity: 1; stroke: rgb(0, 0, 0); stroke-opacity: 1;"/></g></g></g><rect class="legendtoggle" x="0" y="-13.200000000000001" width="123.078125" height="26.400000000000002" style="fill: rgb(0, 0, 0); fill-opacity: 0;"/></g></g></g><rect class="scrollbar" rx="20" ry="3" width="0" height="0" x="0" y="0" style="fill: rgb(128, 139, 164); fill-opacity: 1;"/></g><g class="g-gtitle"/><g class="g-xtitle"><text class="xtitle" x="703" y="1472.9" text-anchor="middle" style="font-family: 'Open Sans', verdana, arial, sans-serif; font-size: 22px; fill: rgb(42, 63, 95); opacity: 1; font-weight: normal; white-space: pre;">ar\vr's  clusters</text></g><g class="g-ytitle"/></g></svg>