<svg class="main-svg" xmlns="http://www.w3.org/2000/svg" xmlns:xlink="http://www.w3.org/1999/xlink" width="1500" height="1500" style="" viewBox="0 0 1500 1500"><rect x="0" y="0" width="1500" height="1500" style="fill: rgb(255, 255, 255); fill-opacity: 1;"/><defs id="defs-1a5fc0"><g class="clips"><clipPath id="clip1a5fc0xyplot" class="plotclip"><rect width="1246" height="1360"/></clipPath><clipPath class="axesclip" id="clip1a5fc0x"><rect x="80" y="0" width="1246" height="1500"/></clipPath><clipPath class="axesclip" id="clip1a5fc0y"><rect x="0" y="60" width="1500" height="1360"/></clipPath><clipPath class="axesclip" id="clip1a5fc0xy"><rect x="80" y="60" width="1246" height="1360"/></clipPath></g><g class="gradients"/><g class="patterns"/></defs><g class="bglayer"/><g class="layer-below"><g class="imagelayer"/><g class="shapelayer"/></g><g class="cartesianlayer"><g class="subplot xy"><g class="layer-subplot"><g class="shapelayer"/><g class="imagelayer"/></g><g class="minor-gridlayer"><g class="x"/><g class="y"/></g><g class="gridlayer"><g class="x"><path class="xgrid crisp" transform="translate(207.6,0)" d="M0,60v1360" style="stroke: rgb(255, 255, 255); stroke-opacity: 1; stroke-width: 1px;"/><path class="xgrid crisp" transform="translate(383.59,0)" d="M0,60v1360" style="stroke: rgb(255, 255, 255); stroke-opacity: 1; stroke-width: 1px;"/><path class="xgrid crisp" transform="translate(559.5699999999999,0)" d="M0,60v1360" style="stroke: rgb(255, 255, 255); stroke-opacity: 1; stroke-width: 1px;"/><path class="xgrid crisp" transform="translate(735.56,0)" d="M0,60v1360" style="stroke: rgb(255, 255, 255); stroke-opacity: 1; stroke-width: 1px;"/><path class="xgrid crisp" transform="translate(911.54,0)" d="M0,60v1360" style="stroke: rgb(255, 255, 255); stroke-opacity: 1; stroke-width: 1px;"/><path class="xgrid crisp" transform="translate(1087.53,0)" d="M0,60v1360" style="stroke: rgb(255, 255, 255); stroke-opacity: 1; stroke-width: 1px;"/><path class="xgrid crisp" transform="translate(1263.52,0)" d="M0,60v1360" style="stroke: rgb(255, 255, 255); stroke-opacity: 1; stroke-width: 1px;"/></g><g class="y"><path class="ygrid crisp" transform="translate(0,1187.19)" d="M80,0h1246" style="stroke: rgb(255, 255, 255); stroke-opacity: 1; stroke-width: 1px;"/><path class="ygrid crisp" transform="translate(0,1019.01)" d="M80,0h1246" style="stroke: rgb(255, 255, 255); stroke-opacity: 1; stroke-width: 1px;"/><path class="ygrid crisp" transform="translate(0,850.84)" d="M80,0h1246" style="stroke: rgb(255, 255, 255); stroke-opacity: 1; stroke-width: 1px;"/><path class="ygrid crisp" transform="translate(0,682.66)" d="M80,0h1246" style="stroke: rgb(255, 255, 255); stroke-opacity: 1; stroke-width: 1px;"/><path class="ygrid crisp" transform="translate(0,514.48)" d="M80,0h1246" style="stroke: rgb(255, 255, 255); stroke-opacity: 1; stroke-width: 1px;"/><path class="ygrid crisp" transform="translate(0,346.3)" d="M80,0h1246" style="stroke: rgb(255, 255, 255); stroke-opacity: 1; stroke-width: 1px;"/><path class="ygrid crisp" transform="translate(0,178.12)" d="M80,0h1246" style="stroke: rgb(255, 255, 255); stroke-opacity: 1; stroke-width: 1px;"/></g></g><g class="zerolinelayer"><path class="yzl zl crisp" transform="translate(0,1355.37)" d="M80,0h1246" style="stroke: rgb(255, 255, 255); stroke-opacity: 1; stroke-width: 2px;"/></g><path class="xlines-below"/><path class="ylines-below"/><g class="overlines-below"/><g class="xaxislayer-below"/><g class="yaxislayer-below"/><g class="overaxes-below"/><g class="plot" transform="translate(80,60)" clip-path="url(#clip1a5fc0xyplot)"><g class="scatterlayer mlayer"><g class="trace scatter trace21c8fa" style="stroke-miterlimit: 2; opacity: 1;"><g class="fills"/><g class="errorbars"/><g class="lines"/><g class="points"><path class="point" transform="translate(934.12,255.97)" d="M13.32,0A13.32,13.32 0 1,1 0,-13.32A13.32,13.32 0 0,1 13.32,0Z" style="opacity: 0.7; stroke-width: 1px; fill: rgb(31, 119, 180); fill-opacity: 1; stroke: rgb(0, 0, 0); stroke-opacity: 1;"/><path class="point" transform="translate(1173.51,744.58)" d="M9.12,0A9.12,9.12 0 1,1 0,-9.12A9.12,9.12 0 0,1 9.12,0Z" style="opacity: 0.7; stroke-width: 1px; fill: rgb(31, 119, 180); fill-opacity: 1; stroke: rgb(0, 0, 0); stroke-opacity: 1;"/><path class="point" transform="translate(1119.67,461.49)" d="M7.18,0A7.18,7.18 0 1,1 0,-7.18A7.18,7.18 0 0,1 7.18,0Z" style="opacity: 0.7; stroke-width: 1px; fill: rgb(31, 119, 180); fill-opacity: 1; stroke: rgb(0, 0, 0); stroke-opacity: 1;"/><path class="point" transform="translate(386.69,929.54)" d="M3.48,0A3.48,3.48 0 1,1 0,-3.48A3.48,3.48 0 0,1 3.48,0Z" style="opacity: 0.7; stroke-width: 1px; fill: rgb(31, 119, 180); fill-opacity: 1; stroke: rgb(0, 0, 0); stroke-opacity: 1;"/></g><g class="text"><g class="textpoint" transform="translate(0,-7.199999999999999)"><text x="934.12" y="255.97" text-anchor="middle" style="font-family: 'Open Sans', verdana, arial, sans-serif; font-size: 18px; fill: rgb(42, 63, 95); fill-opacity: 1; white-space: pre;"><tspan class="line" dy="0em" x="934.12" y="255.97">russell</tspan><tspan class="line" dy="1.3em" x="934.12" y="255.97">indonesian</tspan></text></g><g class="textpoint" transform="translate(0,4.5)"><text x="1173.51" y="744.58" text-anchor="middle" style="font-family: 'Open Sans', verdana, arial, sans-serif; font-size: 18px; fill: rgb(42, 63, 95); fill-opacity: 1; white-space: pre;">consider making</text></g><g class="textpoint" transform="translate(0,-30.6)"><text x="1119.67" y="461.49" text-anchor="middle" style="font-family: 'Open Sans', verdana, arial, sans-serif; font-size: 18px; fill: rgb(42, 63, 95); fill-opacity: 1; white-space: pre;"><tspan class="line" dy="0em" x="1119.67" y="461.49">offset</tspan><tspan class="line" dy="1.3em" x="1119.67" y="461.49">cnetcom</tspan><tspan class="line" dy="2.6em" x="1119.67" y="461.49">applying</tspan><tspan class="line" dy="3.9000000000000004em" x="1119.67" y="461.49">holdings</tspan></text></g><g class="textpoint" transform="translate(0,4.5)"><text x="386.69" y="929.54" text-anchor="middle" style="font-family: 'Open Sans', verdana, arial, sans-serif; font-size: 18px; fill: rgb(42, 63, 95); fill-opacity: 1; white-space: pre;">margaret groove</text></g></g></g><g class="trace scatter trace9d72f4" style="stroke-miterlimit: 2; opacity: 1;"><g class="fills"/><g class="errorbars"/><g class="lines"/><g class="points"><path class="point" transform="translate(77.22,1051.8)" d="M13.35,0A13.35,13.35 0 1,1 0,-13.35A13.35,13.35 0 0,1 13.35,0Z" style="opacity: 0.7; stroke-width: 1px; fill: rgb(214, 39, 40); fill-opacity: 1; stroke: rgb(0, 0, 0); stroke-opacity: 1;"/><path class="point" transform="translate(769.17,525.52)" d="M11.66,0A11.66,11.66 0 1,1 0,-11.66A11.66,11.66 0 0,1 11.66,0Z" style="opacity: 0.7; stroke-width: 1px; fill: rgb(214, 39, 40); fill-opacity: 1; stroke: rgb(0, 0, 0); stroke-opacity: 1;"/><path class="point" transform="translate(931.49,254.5)" d="M10.01,0A10.01,10.01 0 1,1 0,-10.01A10.01,10.01 0 0,1 10.01,0Z" style="opacity: 0.7; stroke-width: 1px; fill: rgb(214, 39, 40); fill-opacity: 1; stroke: rgb(0, 0, 0); stroke-opacity: 1;"/><path class="point" transform="translate(754.2,864.92)" d="M2.2,0A2.2,2.2 0 1,1 0,-2.2A2.2,2.2 0 0,1 2.2,0Z" style="opacity: 0.7; stroke-width: 1px; fill: rgb(214, 39, 40); fill-opacity: 1; stroke: rgb(0, 0, 0); stroke-opacity: 1;"/></g><g class="text"><g class="textpoint" transform="translate(0,-7.199999999999999)"><text x="77.22" y="1051.8" text-anchor="middle" style="font-family: 'Open Sans', verdana, arial, sans-serif; font-size: 18px; fill: rgb(42, 63, 95); fill-opacity: 1; white-space: pre;"><tspan class="line" dy="0em" x="77.22" y="1051.8">poster</tspan><tspan class="line" dy="1.3em" x="77.22" y="1051.8">proceeding</tspan></text></g><g class="textpoint" transform="translate(0,-18.9)"><text x="769.17" y="525.52" text-anchor="middle" style="font-family: 'Open Sans', verdana, arial, sans-serif; font-size: 18px; fill: rgb(42, 63, 95); fill-opacity: 1; white-space: pre;"><tspan class="line" dy="0em" x="769.17" y="525.52">regarding</tspan><tspan class="line" dy="1.3em" x="769.17" y="525.52">comprehensive</tspan><tspan class="line" dy="2.6em" x="769.17" y="525.52">circulation</tspan></text></g><g class="textpoint" transform="translate(0,-7.199999999999999)"><text x="931.49" y="254.5" text-anchor="middle" style="font-family: 'Open Sans', verdana, arial, sans-serif; font-size: 18px; fill: rgb(42, 63, 95); fill-opacity: 1; white-space: pre;"><tspan class="line" dy="0em" x="931.49" y="254.5">complaints</tspan><tspan class="line" dy="1.3em" x="931.49" y="254.5">excited</tspan></text></g><g class="textpoint" transform="translate(0,4.5)"><text x="754.2" y="864.92" text-anchor="middle" style="font-family: 'Open Sans', verdana, arial, sans-serif; font-size: 18px; fill: rgb(42, 63, 95); fill-opacity: 1; white-space: pre;">listen hungary</text></g></g></g><g class="trace scatter tracef38eda" style="stroke-miterlimit: 2; opacity: 1;"><g class="fills"/><g class="errorbars"/><g class="lines"/><g class="points"><path class="point" transform="translate(1028.49,384.26)" d="M13.68,0A13.68,13.68 0 1,1 0,-13.68A13.68,13.68 0 0,1 13.68,0Z" style="opacity: 0.7; stroke-width: 1px; fill: rgb(188, 189, 34); fill-opacity: 1; stroke: rgb(0, 0, 0); stroke-opacity: 1;"/><path class="point" transform="translate(264.85,1278.84)" d="M11.77,0A11.77,11.77 0 1,1 0,-11.77A11.77,11.77 0 0,1 11.77,0Z" style="opacity: 0.7; stroke-width: 1px; fill: rgb(188, 189, 34); fill-opacity: 1; stroke: rgb(0, 0, 0); stroke-opacity: 1;"/><path class="point" transform="translate(170.44,663.85)" d="M11.03,0A11.03,11.03 0 1,1 0,-11.03A11.03,11.03 0 0,1 11.03,0Z" style="opacity: 0.7; stroke-width: 1px; fill: rgb(188, 189, 34); fill-opacity: 1; stroke: rgb(0, 0, 0); stroke-opacity: 1;"/><path class="point" transform="translate(361.28,1081.37)" d="M7.69,0A7.69,7.69 0 1,1 0,-7.69A7.69,7.69 0 0,1 7.69,0Z" style="opacity: 0.7; stroke-width: 1px; fill: rgb(188, 189, 34); fill-opacity: 1; stroke: rgb(0, 0, 0); stroke-opacity: 1;"/></g><g class="text"><g class="textpoint" transform="translate(0,4.5)"><text x="1028.49" y="384.26" text-anchor="middle" style="font-family: 'Open Sans', verdana, arial, sans-serif; font-size: 18px; fill: rgb(42, 63, 95); fill-opacity: 1; white-space: pre;">ruling prepare</text></g><g class="textpoint" transform="translate(0,-18.9)"><text x="264.85" y="1278.84" text-anchor="middle" style="font-family: 'Open Sans', verdana, arial, sans-serif; font-size: 18px; fill: rgb(42, 63, 95); fill-opacity: 1; white-space: pre;"><tspan class="line" dy="0em" x="264.85" y="1278.84">pokemon</tspan><tspan class="line" dy="1.3em" x="264.85" y="1278.84">meanwhile</tspan><tspan class="line" dy="2.6em" x="264.85" y="1278.84">degree</tspan></text></g><g class="textpoint" transform="translate(0,-7.199999999999999)"><text x="170.44" y="663.85" text-anchor="middle" style="font-family: 'Open Sans', verdana, arial, sans-serif; font-size: 18px; fill: rgb(42, 63, 95); fill-opacity: 1; white-space: pre;"><tspan class="line" dy="0em" x="170.44" y="663.85">particular</tspan><tspan class="line" dy="1.3em" x="170.44" y="663.85">titles</tspan></text></g><g class="textpoint" transform="translate(0,-18.9)"><text x="361.28" y="1081.37" text-anchor="middle" style="font-family: 'Open Sans', verdana, arial, sans-serif; font-size: 18px; fill: rgb(42, 63, 95); fill-opacity: 1; white-space: pre;"><tspan class="line" dy="0em" x="361.28" y="1081.37">mentor</tspan><tspan class="line" dy="1.3em" x="361.28" y="1081.37">reduced</tspan><tspan class="line" dy="2.6em" x="361.28" y="1081.37">posters</tspan></text></g></g></g><g class="trace scatter trace01b874" style="stroke-miterlimit: 2; opacity: 1;"><g class="fills"/><g class="errorbars"/><g class="lines"/><g class="points"><path class="point" transform="translate(390.58,343.45)" d="M14.14,0A14.14,14.14 0 1,1 0,-14.14A14.14,14.14 0 0,1 14.14,0Z" style="opacity: 0.7; stroke-width: 1px; fill: rgb(140, 86, 75); fill-opacity: 1; stroke: rgb(0, 0, 0); stroke-opacity: 1;"/><path class="point" transform="translate(1011.87,81.72)" d="M12.27,0A12.27,12.27 0 1,1 0,-12.27A12.27,12.27 0 0,1 12.27,0Z" style="opacity: 0.7; stroke-width: 1px; fill: rgb(140, 86, 75); fill-opacity: 1; stroke: rgb(0, 0, 0); stroke-opacity: 1;"/><path class="point" transform="translate(1105.72,537.69)" d="M9.76,0A9.76,9.76 0 1,1 0,-9.76A9.76,9.76 0 0,1 9.76,0Z" style="opacity: 0.7; stroke-width: 1px; fill: rgb(140, 86, 75); fill-opacity: 1; stroke: rgb(0, 0, 0); stroke-opacity: 1;"/></g><g class="text"><g class="textpoint" transform="translate(0,-18.9)"><text x="390.58" y="343.45" text-anchor="middle" style="font-family: 'Open Sans', verdana, arial, sans-serif; font-size: 18px; fill: rgb(42, 63, 95); fill-opacity: 1; white-space: pre;"><tspan class="line" dy="0em" x="390.58" y="343.45">toronto</tspan><tspan class="line" dy="1.3em" x="390.58" y="343.45">crisis</tspan><tspan class="line" dy="2.6em" x="390.58" y="343.45">chamber</tspan></text></g><g class="textpoint" transform="translate(0,-7.199999999999999)"><text x="1011.87" y="81.72" text-anchor="middle" style="font-family: 'Open Sans', verdana, arial, sans-serif; font-size: 18px; fill: rgb(42, 63, 95); fill-opacity: 1; white-space: pre;"><tspan class="line" dy="0em" x="1011.87" y="81.72">falling</tspan><tspan class="line" dy="1.3em" x="1011.87" y="81.72">dialogue</tspan></text></g><g class="textpoint" transform="translate(0,-18.9)"><text x="1105.72" y="537.69" text-anchor="middle" style="font-family: 'Open Sans', verdana, arial, sans-serif; font-size: 18px; fill: rgb(42, 63, 95); fill-opacity: 1; white-space: pre;"><tspan class="line" dy="0em" x="1105.72" y="537.69">enquiries</tspan><tspan class="line" dy="1.3em" x="1105.72" y="537.69">implementation</tspan><tspan class="line" dy="2.6em" x="1105.72" y="537.69">duplicate</tspan></text></g></g></g></g></g><g class="overplot"/><path class="xlines-above crisp" d="M0,0" style="fill: none;"/><path class="ylines-above crisp" d="M0,0" style="fill: none;"/><g class="overlines-above"/><g class="xaxislayer-above"><g class="xtick"><text text-anchor="middle" x="0" y="1439" transform="translate(207.6,0)" style="font-family: 'Open Sans', verdana, arial, sans-serif; font-size: 18px; fill: rgb(42, 63, 95); fill-opacity: 1; white-space: pre; opacity: 1;">2</text></g><g class="xtick"><text text-anchor="middle" x="0" y="1439" style="font-family: 'Open Sans', verdana, arial, sans-serif; font-size: 18px; fill: rgb(42, 63, 95); fill-opacity: 1; white-space: pre; opacity: 1;" transform="translate(383.59,0)">4</text></g><g class="xtick"><text text-anchor="middle" x="0" y="1439" style="font-family: 'Open Sans', verdana, arial, sans-serif; font-size: 18px; fill: rgb(42, 63, 95); fill-opacity: 1; white-space: pre; opacity: 1;" transform="translate(559.5699999999999,0)">6</text></g><g class="xtick"><text text-anchor="middle" x="0" y="1439" style="font-family: 'Open Sans', verdana, arial, sans-serif; font-size: 18px; fill: rgb(42, 63, 95); fill-opacity: 1; white-space: pre; opacity: 1;" transform="translate(735.56,0)">8</text></g><g class="xtick"><text text-anchor="middle" x="0" y="1439" style="font-family: 'Open Sans', verdana, arial, sans-serif; font-size: 18px; fill: rgb(42, 63, 95); fill-opacity: 1; white-space: pre; opacity: 1;" transform="translate(911.54,0)">10</text></g><g class="xtick"><text text-anchor="middle" x="0" y="1439" style="font-family: 'Open Sans', verdana, arial, sans-serif; font-size: 18px; fill: rgb(42, 63, 95); fill-opacity: 1; white-space: pre; opacity: 1;" transform="translate(1087.53,0)">12</text></g><g class="xtick"><text text-anchor="middle" x="0" y="1439" style="font-family: 'Open Sans', verdana, arial, sans-serif; font-size: 18px; fill: rgb(42, 63, 95); fill-opacity: 1; white-space: pre; opacity: 1;" transform="translate(1263.52,0)">14</text></g></g><g class="yaxislayer-above"><g class="ytick"><text text-anchor="end" x="79" y="6.3" transform="translate(0,1355.37)" style="font-family: 'Open Sans', verdana, arial, sans-serif; font-size: 18px; fill: rgb(42, 63, 95); fill-opacity: 1; white-space: pre; opacity: 1;">0</text></g><g class="ytick"><text text-anchor="end" x="79" y="6.3" style="font-family: 'Open Sans', verdana, arial, sans-serif; font-size: 18px; fill: rgb(42, 63, 95); fill-opacity: 1; white-space: pre; opacity: 1;" transform="translate(0,1187.19)">2</text></g><g class="ytick"><text text-anchor="end" x="79" y="6.3" style="font-family: 'Open Sans', verdana, arial, sans-serif; font-size: 18px; fill: rgb(42, 63, 95); fill-opacity: 1; white-space: pre; opacity: 1;" transform="translate(0,1019.01)">4</text></g><g class="ytick"><text text-anchor="end" x="79" y="6.3" style="font-family: 'Open Sans', verdana, arial, sans-serif; font-size: 18px; fill: rgb(42, 63, 95); fill-opacity: 1; white-space: pre; opacity: 1;" transform="translate(0,850.84)">6</text></g><g class="ytick"><text text-anchor="end" x="79" y="6.3" style="font-family: 'Open Sans', verdana, arial, sans-serif; font-size: 18px; fill: rgb(42, 63, 95); fill-opacity: 1; white-space: pre; opacity: 1;" transform="translate(0,682.66)">8</text></g><g class="ytick"><text text-anchor="end" x="79" y="6.3" style="font-family: 'Open Sans', verdana, arial, sans-serif; font-size: 18px; fill: rgb(42, 63, 95); fill-opacity: 1; white-space: pre; opacity: 1;" transform="translate(0,514.48)">10</text></g><g class="ytick"><text text-anchor="end" x="79" y="6.3" style="font-family: 'Open Sans', verdana, arial, sans-serif; font-size: 18px; fill: rgb(42, 63, 95); fill-opacity: 1; white-space: pre; opacity: 1;" transform="translate(0,346.3)">12</text></g><g class="ytick"><text text-anchor="end" x="79" y="6.3" style="font-family: 'Open Sans', verdana, arial, sans-serif; font-size: 18px; fill: rgb(42, 63, 95); fill-opacity: 1; white-space: pre; opacity: 1;" transform="translate(0,178.12)">14</text></g></g><g class="overaxes-above"/></g></g><g class="polarlayer"/><g class="smithlayer"/><g class="ternarylayer"/><g class="geolayer"/><g class="funnelarealayer"/><g class="pielayer"/><g class="iciclelayer"/><g class="treemaplayer"/><g class="sunburstlayer"/><g class="glimages"/><defs id="topdefs-1a5fc0"><g class="clips"/><clipPath id="legend1a5fc0"><rect width="137" height="145" x="0" y="0"/></clipPath></defs><g class="layer-above"><g class="imagelayer"/><g class="shapelayer"/></g><g class="infolayer"><g class="legend" pointer-events="all" transform="translate(1350.92,60)"><rect class="bg" shape-rendering="crispEdges" width="137" height="145" x="0" y="0" style="stroke: rgb(68, 68, 68); stroke-opacity: 1; fill: rgb(255, 255, 255); fill-opacity: 1; stroke-width: 0px;"/><g class="scrollbox" transform="" clip-path="url(#legend1a5fc0)"><text class="legendtitletext" text-anchor="start" x="2" y="28.6" style="font-family: 'Open Sans', verdana, arial, sans-serif; font-size: 22px; fill: rgb(42, 63, 95); fill-opacity: 1; white-space: pre;">cluster_name</text><g class="groups" transform=""><g class="traces" transform="translate(0,46.800000000000004)" style="opacity: 1;"><text class="legendtext" text-anchor="start" x="40" y="7.0200000000000005" style="font-family: 'Open Sans', verdana, arial, sans-serif; font-size: 18px; fill: rgb(42, 63, 95); fill-opacity: 1; white-space: pre;">Кластер 0</text><g class="layers" style="opacity: 1;"><g class="legendfill"/><g class="legendlines"/><g class="legendsymbols"><g class="legendpoints"><path class="scatterpts" transform="translate(20,0)" d="M6,0A6,6 0 1,1 0,-6A6,6 0 0,1 6,0Z" style="opacity: 0.7; stroke-width: 2px; fill: rgb(31, 119, 180); fill-opacity: 1; stroke: rgb(0, 0, 0); stroke-opacity: 1;"/></g></g></g><rect class="legendtoggle" x="0" y="-13.200000000000001" width="123.078125" height="26.400000000000002" style="fill: rgb(0, 0, 0); fill-opacity: 0;"/></g></g><g class="groups" transform=""><g class="traces" transform="translate(0,73.2)" style="opacity: 1;"><text class="legendtext" text-anchor="start" x="40" y="7.0200000000000005" style="font-family: 'Open Sans', verdana, arial, sans-serif; font-size: 18px; fill: rgb(42, 63, 95); fill-opacity: 1; white-space: pre;">Кластер 1</text><g class="layers" style="opacity: 1;"><g class="legendfill"/><g class="legendlines"/><g class="legendsymbols"><g class="legendpoints"><path class="scatterpts" transform="translate(20,0)" d="M6,0A6,6 0 1,1 0,-6A6,6 0 0,1 6,0Z" style="opacity: 0.7; stroke-width: 2px; fill: rgb(214, 39, 40); fill-opacity: 1; stroke: rgb(0, 0, 0); stroke-opacity: 1;"/></g></g></g><rect class="legendtoggle" x="0" y="-13.200000000000001" width="123.078125" height="26.400000000000002" style="fill: rgb(0, 0, 0); fill-opacity: 0;"/></g></g><g class="groups" transform=""><g class="traces" transform="translate(0,99.60000000000001)" style="opacity: 1;"><text class="legendtext" text-anchor="start" x="40" y="7.0200000000000005" style="font-family: 'Open Sans', verdana, arial, sans-serif; font-size: 18px; fill: rgb(42, 63, 95); fill-opacity: 1; white-space: pre;">Кластер 2</text><g class="layers" style="opacity: 1;"><g class="legendfill"/><g class="legendlines"/><g class="legendsymbols"><g class="legendpoints"><path class="scatterpts" transform="translate(20,0)" d="M6,0A6,6 0 1,1 0,-6A6,6 0 0,1 6,0Z" style="opacity: 0.7; stroke-width: 2px; fill: rgb(188, 189, 34); fill-opacity: 1; stroke: rgb(0, 0, 0); stroke-opacity: 1;"/></g></g></g><rect class="legendtoggle" x="0" y="-13.200000000000001" width="123.078125" height="26.400000000000002" style="fill: rgb(0, 0, 0); fill-opacity: 0;"/></g></g><g class="groups" transform=""><g class="traces" transform="translate(0,126.00000000000001)" style="opacity: 1;"><text class="legendtext" text-anchor="start" x="40" y="7.0200000000000005" style="font-family: 'Open Sans', verdana, arial, sans-serif; font-size: 18px; fill: rgb(42, 63, 95); fill-opacity: 1; white-space: pre;">Кластер 3</text><g class="layers" style="opacity: 1;"><g class="legendfill"/><g class="legendlines"/><g class="legendsymbols"><g class="legendpoints"><path class="scatterpts" transform="translate(20,0)" d="M6,0A6,6 0 1,1 0,-6A6,6 0 0,1 6,0Z" style="opacity: 0.7; stroke-width: 2px; fill: rgb(140, 86, 75); fill-opacity: 1; stroke: rgb(0, 0, 0); stroke-opacity: 1;"/></g></g></g><rect class="legendtoggle" x="0" y="-13.200000000000001" width="123.078125" height="26.400000000000002" style="fill: rgb(0, 0, 0); fill-opacity: 0;"/></g></g></g><rect class="scrollbar" rx="20" ry="3" width="0" height="0" x="0" y="0" style="fill: rgb(128, 139, 164); fill-opacity: 1;"/></g><g class="g-gtitle"/><g class="g-xtitle"><text class="xtitle" x="703" y="1472.9" text-anchor="middle" style="font-family: 'Open Sans', verdana, arial, sans-serif; font-size: 22px; fill: rgb(42, 63, 95); opacity: 1; font-weight: normal; white-space: pre;">personnel's  clusters</text></g><g class="g-ytitle"/></g></svg>