<svg class="main-svg" xmlns="http://www.w3.org/2000/svg" xmlns:xlink="http://www.w3.org/1999/xlink" width="1500" height="1500" style="" viewBox="0 0 1500 1500"><rect x="0" y="0" width="1500" height="1500" style="fill: rgb(255, 255, 255); fill-opacity: 1;"/><defs id="defs-6b4ec7"><g class="clips"><clipPath id="clip6b4ec7xyplot" class="plotclip"><rect width="1246" height="1360"/></clipPath><clipPath class="axesclip" id="clip6b4ec7x"><rect x="80" y="0" width="1246" height="1500"/></clipPath><clipPath class="axesclip" id="clip6b4ec7y"><rect x="0" y="60" width="1500" height="1360"/></clipPath><clipPath class="axesclip" id="clip6b4ec7xy"><rect x="80" y="60" width="1246" height="1360"/></clipPath></g><g class="gradients"/><g class="patterns"/></defs><g class="bglayer"/><g class="layer-below"><g class="imagelayer"/><g class="shapelayer"/></g><g class="cartesianlayer"><g class="subplot xy"><g class="layer-subplot"><g class="shapelayer"/><g class="imagelayer"/></g><g class="minor-gridlayer"><g class="x"/><g class="y"/></g><g class="gridlayer"><g class="x"><path class="xgrid crisp" transform="translate(215.47,0)" d="M0,60v1360" style="stroke: rgb(255, 255, 255); stroke-opacity: 1; stroke-width: 1px;"/><path class="xgrid crisp" transform="translate(394.19,0)" d="M0,60v1360" style="stroke: rgb(255, 255, 255); stroke-opacity: 1; stroke-width: 1px;"/><path class="xgrid crisp" transform="translate(572.9,0)" d="M0,60v1360" style="stroke: rgb(255, 255, 255); stroke-opacity: 1; stroke-width: 1px;"/><path class="xgrid crisp" transform="translate(751.61,0)" d="M0,60v1360" style="stroke: rgb(255, 255, 255); stroke-opacity: 1; stroke-width: 1px;"/><path class="xgrid crisp" transform="translate(930.33,0)" d="M0,60v1360" style="stroke: rgb(255, 255, 255); stroke-opacity: 1; stroke-width: 1px;"/><path class="xgrid crisp" transform="translate(1109.04,0)" d="M0,60v1360" style="stroke: rgb(255, 255, 255); stroke-opacity: 1; stroke-width: 1px;"/><path class="xgrid crisp" transform="translate(1287.76,0)" d="M0,60v1360" style="stroke: rgb(255, 255, 255); stroke-opacity: 1; stroke-width: 1px;"/></g><g class="y"><path class="ygrid crisp" transform="translate(0,1393.75)" d="M80,0h1246" style="stroke: rgb(255, 255, 255); stroke-opacity: 1; stroke-width: 1px;"/><path class="ygrid crisp" transform="translate(0,1241.3)" d="M80,0h1246" style="stroke: rgb(255, 255, 255); stroke-opacity: 1; stroke-width: 1px;"/><path class="ygrid crisp" transform="translate(0,1088.85)" d="M80,0h1246" style="stroke: rgb(255, 255, 255); stroke-opacity: 1; stroke-width: 1px;"/><path class="ygrid crisp" transform="translate(0,936.4)" d="M80,0h1246" style="stroke: rgb(255, 255, 255); stroke-opacity: 1; stroke-width: 1px;"/><path class="ygrid crisp" transform="translate(0,783.95)" d="M80,0h1246" style="stroke: rgb(255, 255, 255); stroke-opacity: 1; stroke-width: 1px;"/><path class="ygrid crisp" transform="translate(0,631.5)" d="M80,0h1246" style="stroke: rgb(255, 255, 255); stroke-opacity: 1; stroke-width: 1px;"/><path class="ygrid crisp" transform="translate(0,479.04)" d="M80,0h1246" style="stroke: rgb(255, 255, 255); stroke-opacity: 1; stroke-width: 1px;"/><path class="ygrid crisp" transform="translate(0,326.59)" d="M80,0h1246" style="stroke: rgb(255, 255, 255); stroke-opacity: 1; stroke-width: 1px;"/><path class="ygrid crisp" transform="translate(0,174.14)" d="M80,0h1246" style="stroke: rgb(255, 255, 255); stroke-opacity: 1; stroke-width: 1px;"/></g></g><g class="zerolinelayer"/><path class="xlines-below"/><path class="ylines-below"/><g class="overlines-below"/><g class="xaxislayer-below"/><g class="yaxislayer-below"/><g class="overaxes-below"/><g class="plot" transform="translate(80,60)" clip-path="url(#clip6b4ec7xyplot)"><g class="scatterlayer mlayer"><g class="trace scatter trace77c22b" style="stroke-miterlimit: 2; opacity: 1;"><g class="fills"/><g class="errorbars"/><g class="lines"/><g class="points"><path class="point" transform="translate(316.02,839.73)" d="M11.52,0A11.52,11.52 0 1,1 0,-11.52A11.52,11.52 0 0,1 11.52,0Z" style="opacity: 0.7; stroke-width: 1px; fill: rgb(188, 189, 34); fill-opacity: 1; stroke: rgb(0, 0, 0); stroke-opacity: 1;"/><path class="point" transform="translate(74.15,1223.63)" d="M10.6,0A10.6,10.6 0 1,1 0,-10.6A10.6,10.6 0 0,1 10.6,0Z" style="opacity: 0.7; stroke-width: 1px; fill: rgb(188, 189, 34); fill-opacity: 1; stroke: rgb(0, 0, 0); stroke-opacity: 1;"/><path class="point" transform="translate(938.22,454.03)" d="M3.3,0A3.3,3.3 0 1,1 0,-3.3A3.3,3.3 0 0,1 3.3,0Z" style="opacity: 0.7; stroke-width: 1px; fill: rgb(188, 189, 34); fill-opacity: 1; stroke: rgb(0, 0, 0); stroke-opacity: 1;"/></g><g class="text"><g class="textpoint" transform="translate(0,-30.6)"><text x="316.02" y="839.73" text-anchor="middle" style="font-family: 'Open Sans', verdana, arial, sans-serif; font-size: 18px; fill: rgb(42, 63, 95); fill-opacity: 1; white-space: pre;"><tspan class="line" dy="0em" x="316.02" y="839.73">operating</tspan><tspan class="line" dy="1.3em" x="316.02" y="839.73">stevens</tspan><tspan class="line" dy="2.6em" x="316.02" y="839.73">nirvana</tspan><tspan class="line" dy="3.9000000000000004em" x="316.02" y="839.73">gabriel</tspan></text></g><g class="textpoint" transform="translate(0,-7.199999999999999)"><text x="74.15" y="1223.63" text-anchor="middle" style="font-family: 'Open Sans', verdana, arial, sans-serif; font-size: 18px; fill: rgb(42, 63, 95); fill-opacity: 1; white-space: pre;"><tspan class="line" dy="0em" x="74.15" y="1223.63">offers</tspan><tspan class="line" dy="1.3em" x="74.15" y="1223.63">incorrect</tspan></text></g><g class="textpoint" transform="translate(0,-18.9)"><text x="938.22" y="454.03" text-anchor="middle" style="font-family: 'Open Sans', verdana, arial, sans-serif; font-size: 18px; fill: rgb(42, 63, 95); fill-opacity: 1; white-space: pre;"><tspan class="line" dy="0em" x="938.22" y="454.03">bestsellers</tspan><tspan class="line" dy="1.3em" x="938.22" y="454.03">enterprise</tspan><tspan class="line" dy="2.6em" x="938.22" y="454.03">promotional</tspan></text></g></g></g><g class="trace scatter trace0cc86e" style="stroke-miterlimit: 2; opacity: 1;"><g class="fills"/><g class="errorbars"/><g class="lines"/><g class="points"><path class="point" transform="translate(1119.09,1276.19)" d="M14.14,0A14.14,14.14 0 1,1 0,-14.14A14.14,14.14 0 0,1 14.14,0Z" style="opacity: 0.7; stroke-width: 1px; fill: rgb(148, 103, 189); fill-opacity: 1; stroke: rgb(0, 0, 0); stroke-opacity: 1;"/><path class="point" transform="translate(105.16,1134.68)" d="M13.7,0A13.7,13.7 0 1,1 0,-13.7A13.7,13.7 0 0,1 13.7,0Z" style="opacity: 0.7; stroke-width: 1px; fill: rgb(148, 103, 189); fill-opacity: 1; stroke: rgb(0, 0, 0); stroke-opacity: 1;"/><path class="point" transform="translate(726.95,139.56)" d="M12.65,0A12.65,12.65 0 1,1 0,-12.65A12.65,12.65 0 0,1 12.65,0Z" style="opacity: 0.7; stroke-width: 1px; fill: rgb(148, 103, 189); fill-opacity: 1; stroke: rgb(0, 0, 0); stroke-opacity: 1;"/><path class="point" transform="translate(991.21,432.57)" d="M10.15,0A10.15,10.15 0 1,1 0,-10.15A10.15,10.15 0 0,1 10.15,0Z" style="opacity: 0.7; stroke-width: 1px; fill: rgb(148, 103, 189); fill-opacity: 1; stroke: rgb(0, 0, 0); stroke-opacity: 1;"/></g><g class="text"><g class="textpoint" transform="translate(0,-18.9)"><text x="1119.09" y="1276.19" text-anchor="middle" style="font-family: 'Open Sans', verdana, arial, sans-serif; font-size: 18px; fill: rgb(42, 63, 95); fill-opacity: 1; white-space: pre;"><tspan class="line" dy="0em" x="1119.09" y="1276.19">lighting</tspan><tspan class="line" dy="1.3em" x="1119.09" y="1276.19">planes</tspan><tspan class="line" dy="2.6em" x="1119.09" y="1276.19">greensboro</tspan></text></g><g class="textpoint" transform="translate(0,-18.9)"><text x="105.16" y="1134.68" text-anchor="middle" style="font-family: 'Open Sans', verdana, arial, sans-serif; font-size: 18px; fill: rgb(42, 63, 95); fill-opacity: 1; white-space: pre;"><tspan class="line" dy="0em" x="105.16" y="1134.68">several</tspan><tspan class="line" dy="1.3em" x="105.16" y="1134.68">animated</tspan><tspan class="line" dy="2.6em" x="105.16" y="1134.68">buried</tspan></text></g><g class="textpoint" transform="translate(0,-18.9)"><text x="726.95" y="139.56" text-anchor="middle" style="font-family: 'Open Sans', verdana, arial, sans-serif; font-size: 18px; fill: rgb(42, 63, 95); fill-opacity: 1; white-space: pre;"><tspan class="line" dy="0em" x="726.95" y="139.56">worthy</tspan><tspan class="line" dy="1.3em" x="726.95" y="139.56">integrate</tspan><tspan class="line" dy="2.6em" x="726.95" y="139.56">collect</tspan></text></g><g class="textpoint" transform="translate(0,-7.199999999999999)"><text x="991.21" y="432.57" text-anchor="middle" style="font-family: 'Open Sans', verdana, arial, sans-serif; font-size: 18px; fill: rgb(42, 63, 95); fill-opacity: 1; white-space: pre;"><tspan class="line" dy="0em" x="991.21" y="432.57">pictures</tspan><tspan class="line" dy="1.3em" x="991.21" y="432.57">instances</tspan></text></g></g></g><g class="trace scatter trace6cdaf4" style="stroke-miterlimit: 2; opacity: 1;"><g class="fills"/><g class="errorbars"/><g class="lines"/><g class="points"><path class="point" transform="translate(132.67,768.38)" d="M13.78,0A13.78,13.78 0 1,1 0,-13.78A13.78,13.78 0 0,1 13.78,0Z" style="opacity: 0.7; stroke-width: 1px; fill: rgb(255, 127, 14); fill-opacity: 1; stroke: rgb(0, 0, 0); stroke-opacity: 1;"/><path class="point" transform="translate(580.34,209.88)" d="M13.05,0A13.05,13.05 0 1,1 0,-13.05A13.05,13.05 0 0,1 13.05,0Z" style="opacity: 0.7; stroke-width: 1px; fill: rgb(255, 127, 14); fill-opacity: 1; stroke: rgb(0, 0, 0); stroke-opacity: 1;"/><path class="point" transform="translate(1172.55,1109.5)" d="M9.97,0A9.97,9.97 0 1,1 0,-9.97A9.97,9.97 0 0,1 9.97,0Z" style="opacity: 0.7; stroke-width: 1px; fill: rgb(255, 127, 14); fill-opacity: 1; stroke: rgb(0, 0, 0); stroke-opacity: 1;"/><path class="point" transform="translate(402.79,77.79)" d="M8.76,0A8.76,8.76 0 1,1 0,-8.76A8.76,8.76 0 0,1 8.76,0Z" style="opacity: 0.7; stroke-width: 1px; fill: rgb(255, 127, 14); fill-opacity: 1; stroke: rgb(0, 0, 0); stroke-opacity: 1;"/></g><g class="text"><g class="textpoint" transform="translate(0,-18.9)"><text x="132.67" y="768.38" text-anchor="middle" style="font-family: 'Open Sans', verdana, arial, sans-serif; font-size: 18px; fill: rgb(42, 63, 95); fill-opacity: 1; white-space: pre;"><tspan class="line" dy="0em" x="132.67" y="768.38">responsibilities</tspan><tspan class="line" dy="1.3em" x="132.67" y="768.38">resolve</tspan><tspan class="line" dy="2.6em" x="132.67" y="768.38">complimentary</tspan></text></g><g class="textpoint" transform="translate(0,-7.199999999999999)"><text x="580.34" y="209.88" text-anchor="middle" style="font-family: 'Open Sans', verdana, arial, sans-serif; font-size: 18px; fill: rgb(42, 63, 95); fill-opacity: 1; white-space: pre;"><tspan class="line" dy="0em" x="580.34" y="209.88">cumshot</tspan><tspan class="line" dy="1.3em" x="580.34" y="209.88">identifies</tspan></text></g><g class="textpoint" transform="translate(0,4.5)"><text x="1172.55" y="1109.5" text-anchor="middle" style="font-family: 'Open Sans', verdana, arial, sans-serif; font-size: 18px; fill: rgb(42, 63, 95); fill-opacity: 1; white-space: pre;">waters career</text></g><g class="textpoint" transform="translate(0,4.5)"><text x="402.79" y="77.79" text-anchor="middle" style="font-family: 'Open Sans', verdana, arial, sans-serif; font-size: 18px; fill: rgb(42, 63, 95); fill-opacity: 1; white-space: pre;">access michelle</text></g></g></g><g class="trace scatter tracece04c5" style="stroke-miterlimit: 2; opacity: 1;"><g class="fills"/><g class="errorbars"/><g class="lines"/><g class="points"><path class="point" transform="translate(493.91,1087.42)" d="M11.48,0A11.48,11.48 0 1,1 0,-11.48A11.48,11.48 0 0,1 11.48,0Z" style="opacity: 0.7; stroke-width: 1px; fill: rgb(214, 39, 40); fill-opacity: 1; stroke: rgb(0, 0, 0); stroke-opacity: 1;"/><path class="point" transform="translate(1027.61,930.38)" d="M7.27,0A7.27,7.27 0 1,1 0,-7.27A7.27,7.27 0 0,1 7.27,0Z" style="opacity: 0.7; stroke-width: 1px; fill: rgb(214, 39, 40); fill-opacity: 1; stroke: rgb(0, 0, 0); stroke-opacity: 1;"/><path class="point" transform="translate(415.47,303.64)" d="M6.41,0A6.41,6.41 0 1,1 0,-6.41A6.41,6.41 0 0,1 6.41,0Z" style="opacity: 0.7; stroke-width: 1px; fill: rgb(214, 39, 40); fill-opacity: 1; stroke: rgb(0, 0, 0); stroke-opacity: 1;"/></g><g class="text"><g class="textpoint" transform="translate(0,-7.199999999999999)"><text x="493.91" y="1087.42" text-anchor="middle" style="font-family: 'Open Sans', verdana, arial, sans-serif; font-size: 18px; fill: rgb(42, 63, 95); fill-opacity: 1; white-space: pre;"><tspan class="line" dy="0em" x="493.91" y="1087.42">speaker</tspan><tspan class="line" dy="1.3em" x="493.91" y="1087.42">permission</tspan></text></g><g class="textpoint" transform="translate(0,-18.9)"><text x="1027.61" y="930.38" text-anchor="middle" style="font-family: 'Open Sans', verdana, arial, sans-serif; font-size: 18px; fill: rgb(42, 63, 95); fill-opacity: 1; white-space: pre;"><tspan class="line" dy="0em" x="1027.61" y="930.38">announces</tspan><tspan class="line" dy="1.3em" x="1027.61" y="930.38">independent</tspan><tspan class="line" dy="2.6em" x="1027.61" y="930.38">coaching</tspan></text></g><g class="textpoint" transform="translate(0,-7.199999999999999)"><text x="415.47" y="303.64" text-anchor="middle" style="font-family: 'Open Sans', verdana, arial, sans-serif; font-size: 18px; fill: rgb(42, 63, 95); fill-opacity: 1; white-space: pre;"><tspan class="line" dy="0em" x="415.47" y="303.64">guestbook</tspan><tspan class="line" dy="1.3em" x="415.47" y="303.64">configure</tspan></text></g></g></g></g></g><g class="overplot"/><path class="xlines-above crisp" d="M0,0" style="fill: none;"/><path class="ylines-above crisp" d="M0,0" style="fill: none;"/><g class="overlines-above"/><g class="xaxislayer-above"><g class="xtick"><text text-anchor="middle" x="0" y="1439" transform="translate(215.47,0)" style="font-family: 'Open Sans', verdana, arial, sans-serif; font-size: 18px; fill: rgb(42, 63, 95); fill-opacity: 1; white-space: pre; opacity: 1;">2</text></g><g class="xtick"><text text-anchor="middle" x="0" y="1439" style="font-family: 'Open Sans', verdana, arial, sans-serif; font-size: 18px; fill: rgb(42, 63, 95); fill-opacity: 1; white-space: pre; opacity: 1;" transform="translate(394.19,0)">4</text></g><g class="xtick"><text text-anchor="middle" x="0" y="1439" style="font-family: 'Open Sans', verdana, arial, sans-serif; font-size: 18px; fill: rgb(42, 63, 95); fill-opacity: 1; white-space: pre; opacity: 1;" transform="translate(572.9,0)">6</text></g><g class="xtick"><text text-anchor="middle" x="0" y="1439" style="font-family: 'Open Sans', verdana, arial, sans-serif; font-size: 18px; fill: rgb(42, 63, 95); fill-opacity: 1; white-space: pre; opacity: 1;" transform="translate(751.61,0)">8</text></g><g class="xtick"><text text-anchor="middle" x="0" y="1439" style="font-family: 'Open Sans', verdana, arial, sans-serif; font-size: 18px; fill: rgb(42, 63, 95); fill-opacity: 1; white-space: pre; opacity: 1;" transform="translate(930.33,0)">10</text></g><g class="xtick"><text text-anchor="middle" x="0" y="1439" style="font-family: 'Open Sans', verdana, arial, sans-serif; font-size: 18px; fill: rgb(42, 63, 95); fill-opacity: 1; white-space: pre; opacity: 1;" transform="translate(1109.04,0)">12</text></g><g class="xtick"><text text-anchor="middle" x="0" y="1439" style="font-family: 'Open Sans', verdana, arial, sans-serif; font-size: 18px; fill: rgb(42, 63, 95); fill-opacity: 1; white-space: pre; opacity: 1;" transform="translate(1287.76,0)">14</text></g></g><g class="yaxislayer-above"><g class="ytick"><text text-anchor="end" x="79" y="6.3" transform="translate(0,1393.75)" style="font-family: 'Open Sans', verdana, arial, sans-serif; font-size: 18px; fill: rgb(42, 63, 95); fill-opacity: 1; white-space: pre; opacity: 1;">2</text></g><g class="ytick"><text text-anchor="end" x="79" y="6.3" style="font-family: 'Open Sans', verdana, arial, sans-serif; font-size: 18px; fill: rgb(42, 63, 95); fill-opacity: 1; white-space: pre; opacity: 1;" transform="translate(0,1241.3)">3</text></g><g class="ytick"><text text-anchor="end" x="79" y="6.3" style="font-family: 'Open Sans', verdana, arial, sans-serif; font-size: 18px; fill: rgb(42, 63, 95); fill-opacity: 1; white-space: pre; opacity: 1;" transform="translate(0,1088.85)">4</text></g><g class="ytick"><text text-anchor="end" x="79" y="6.3" style="font-family: 'Open Sans', verdana, arial, sans-serif; font-size: 18px; fill: rgb(42, 63, 95); fill-opacity: 1; white-space: pre; opacity: 1;" transform="translate(0,936.4)">5</text></g><g class="ytick"><text text-anchor="end" x="79" y="6.3" style="font-family: 'Open Sans', verdana, arial, sans-serif; font-size: 18px; fill: rgb(42, 63, 95); fill-opacity: 1; white-space: pre; opacity: 1;" transform="translate(0,783.95)">6</text></g><g class="ytick"><text text-anchor="end" x="79" y="6.3" style="font-family: 'Open Sans', verdana, arial, sans-serif; font-size: 18px; fill: rgb(42, 63, 95); fill-opacity: 1; white-space: pre; opacity: 1;" transform="translate(0,631.5)">7</text></g><g class="ytick"><text text-anchor="end" x="79" y="6.3" style="font-family: 'Open Sans', verdana, arial, sans-serif; font-size: 18px; fill: rgb(42, 63, 95); fill-opacity: 1; white-space: pre; opacity: 1;" transform="translate(0,479.04)">8</text></g><g class="ytick"><text text-anchor="end" x="79" y="6.3" style="font-family: 'Open Sans', verdana, arial, sans-serif; font-size: 18px; fill: rgb(42, 63, 95); fill-opacity: 1; white-space: pre; opacity: 1;" transform="translate(0,326.59)">9</text></g><g class="ytick"><text text-anchor="end" x="79" y="6.3" style="font-family: 'Open Sans', verdana, arial, sans-serif; font-size: 18px; fill: rgb(42, 63, 95); fill-opacity: 1; white-space: pre; opacity: 1;" transform="translate(0,174.14)">10</text></g></g><g class="overaxes-above"/></g></g><g class="polarlayer"/><g class="smithlayer"/><g class="ternarylayer"/><g class="geolayer"/><g class="funnelarealayer"/><g class="pielayer"/><g class="iciclelayer"/><g class="treemaplayer"/><g class="sunburstlayer"/><g class="glimages"/><defs id="topdefs-6b4ec7"><g class="clips"/><clipPath id="legend6b4ec7"><rect width="137" height="145" x="0" y="0"/></clipPath></defs><g class="layer-above"><g class="imagelayer"/><g class="shapelayer"/></g><g class="infolayer"><g class="legend" pointer-events="all" transform="translate(1350.92,60)"><rect class="bg" shape-rendering="crispEdges" width="137" height="145" x="0" y="0" style="stroke: rgb(68, 68, 68); stroke-opacity: 1; fill: rgb(255, 255, 255); fill-opacity: 1; stroke-width: 0px;"/><g class="scrollbox" transform="" clip-path="url(#legend6b4ec7)"><text class="legendtitletext" text-anchor="start" x="2" y="28.6" style="font-family: 'Open Sans', verdana, arial, sans-serif; font-size: 22px; fill: rgb(42, 63, 95); fill-opacity: 1; white-space: pre;">cluster_name</text><g class="groups" transform=""><g class="traces" transform="translate(0,46.800000000000004)" style="opacity: 1;"><text class="legendtext" text-anchor="start" x="40" y="7.0200000000000005" style="font-family: 'Open Sans', verdana, arial, sans-serif; font-size: 18px; fill: rgb(42, 63, 95); fill-opacity: 1; white-space: pre;">Кластер 0</text><g class="layers" style="opacity: 1;"><g class="legendfill"/><g class="legendlines"/><g class="legendsymbols"><g class="legendpoints"><path class="scatterpts" transform="translate(20,0)" d="M6,0A6,6 0 1,1 0,-6A6,6 0 0,1 6,0Z" style="opacity: 0.7; stroke-width: 2px; fill: rgb(188, 189, 34); fill-opacity: 1; stroke: rgb(0, 0, 0); stroke-opacity: 1;"/></g></g></g><rect class="legendtoggle" x="0" y="-13.200000000000001" width="123.078125" height="26.400000000000002" style="fill: rgb(0, 0, 0); fill-opacity: 0;"/></g></g><g class="groups" transform=""><g class="traces" transform="translate(0,73.2)" style="opacity: 1;"><text class="legendtext" text-anchor="start" x="40" y="7.0200000000000005" style="font-family: 'Open Sans', verdana, arial, sans-serif; font-size: 18px; fill: rgb(42, 63, 95); fill-opacity: 1; white-space: pre;">Кластер 1</text><g class="layers" style="opacity: 1;"><g class="legendfill"/><g class="legendlines"/><g class="legendsymbols"><g class="legendpoints"><path class="scatterpts" transform="translate(20,0)" d="M6,0A6,6 0 1,1 0,-6A6,6 0 0,1 6,0Z" style="opacity: 0.7; stroke-width: 2px; fill: rgb(148, 103, 189); fill-opacity: 1; stroke: rgb(0, 0, 0); stroke-opacity: 1;"/></g></g></g><rect class="legendtoggle" x="0" y="-13.200000000000001" width="123.078125" height="26.400000000000002" style="fill: rgb(0, 0, 0); fill-opacity: 0;"/></g></g><g class="groups" transform=""><g class="traces" transform="translate(0,99.60000000000001)" style="opacity: 1;"><text class="legendtext" text-anchor="start" x="40" y="7.0200000000000005" style="font-family: 'Open Sans', verdana, arial, sans-serif; font-size: 18px; fill: rgb(42, 63, 95); fill-opacity: 1; white-space: pre;">Кластер 2</text><g class="layers" style="opacity: 1;"><g class="legendfill"/><g class="legendlines"/><g class="legendsymbols"><g class="legendpoints"><path class="scatterpts" transform="translate(20,0)" d="M6,0A6,6 0 1,1 0,-6A6,6 0 0,1 6,0Z" style="opacity: 0.7; stroke-width: 2px; fill: rgb(255, 127, 14); fill-opacity: 1; stroke: rgb(0, 0, 0); stroke-opacity: 1;"/></g></g></g><rect class="legendtoggle" x="0" y="-13.200000000000001" width="123.078125" height="26.400000000000002" style="fill: rgb(0, 0, 0); fill-opacity: 0;"/></g></g><g class="groups" transform=""><g class="traces" transform="translate(0,126.00000000000001)" style="opacity: 1;"><text class="legendtext" text-anchor="start" x="40" y="7.0200000000000005" style="font-family: 'Open Sans', verdana, arial, sans-serif; font-size: 18px; fill: rgb(42, 63, 95); fill-opacity: 1; white-space: pre;">Кластер 3</text><g class="layers" style="opacity: 1;"><g class="legendfill"/><g class="legendlines"/><g class="legendsymbols"><g class="legendpoints"><path class="scatterpts" transform="translate(20,0)" d="M6,0A6,6 0 1,1 0,-6A6,6 0 0,1 6,0Z" style="opacity: 0.7; stroke-width: 2px; fill: rgb(214, 39, 40); fill-opacity: 1; stroke: rgb(0, 0, 0); stroke-opacity: 1;"/></g></g></g><rect class="legendtoggle" x="0" y="-13.200000000000001" width="123.078125" height="26.400000000000002" style="fill: rgb(0, 0, 0); fill-opacity: 0;"/></g></g></g><rect class="scrollbar" rx="20" ry="3" width="0" height="0" x="0" y="0" style="fill: rgb(128, 139, 164); fill-opacity: 1;"/></g><g class="g-gtitle"/><g class="g-xtitle"><text class="xtitle" x="703" y="1472.9" text-anchor="middle" style="font-family: 'Open Sans', verdana, arial, sans-serif; font-size: 22px; fill: rgb(42, 63, 95); opacity: 1; font-weight: normal; white-space: pre;">protein's  clusters</text></g><g class="g-ytitle"/></g></svg>