<svg class="main-svg" xmlns="http://www.w3.org/2000/svg" xmlns:xlink="http://www.w3.org/1999/xlink" width="1500" height="1500" style="" viewBox="0 0 1500 1500"><rect x="0" y="0" width="1500" height="1500" style="fill: rgb(255, 255, 255); fill-opacity: 1;"/><defs id="defs-2d4cc0"><g class="clips"><clipPath id="clip2d4cc0xyplot" class="plotclip"><rect width="1246" height="1360"/></clipPath><clipPath class="axesclip" id="clip2d4cc0x"><rect x="80" y="0" width="1246" height="1500"/></clipPath><clipPath class="axesclip" id="clip2d4cc0y"><rect x="0" y="60" width="1500" height="1360"/></clipPath><clipPath class="axesclip" id="clip2d4cc0xy"><rect x="80" y="60" width="1246" height="1360"/></clipPath></g><g class="gradients"/><g class="patterns"/></defs><g class="bglayer"/><g class="layer-below"><g class="imagelayer"/><g class="shapelayer"/></g><g class="cartesianlayer"><g class="subplot xy"><g class="layer-subplot"><g class="shapelayer"/><g class="imagelayer"/></g><g class="minor-gridlayer"><g class="x"/><g class="y"/></g><g class="gridlayer"><g class="x"><path class="xgrid crisp" transform="translate(233.08,0)" d="M0,60v1360" style="stroke: rgb(255, 255, 255); stroke-opacity: 1; stroke-width: 1px;"/><path class="xgrid crisp" transform="translate(397.93,0)" d="M0,60v1360" style="stroke: rgb(255, 255, 255); stroke-opacity: 1; stroke-width: 1px;"/><path class="xgrid crisp" transform="translate(562.77,0)" d="M0,60v1360" style="stroke: rgb(255, 255, 255); stroke-opacity: 1; stroke-width: 1px;"/><path class="xgrid crisp" transform="translate(727.62,0)" d="M0,60v1360" style="stroke: rgb(255, 255, 255); stroke-opacity: 1; stroke-width: 1px;"/><path class="xgrid crisp" transform="translate(892.47,0)" d="M0,60v1360" style="stroke: rgb(255, 255, 255); stroke-opacity: 1; stroke-width: 1px;"/><path class="xgrid crisp" transform="translate(1057.3200000000002,0)" d="M0,60v1360" style="stroke: rgb(255, 255, 255); stroke-opacity: 1; stroke-width: 1px;"/><path class="xgrid crisp" transform="translate(1222.17,0)" d="M0,60v1360" style="stroke: rgb(255, 255, 255); stroke-opacity: 1; stroke-width: 1px;"/></g><g class="y"><path class="ygrid crisp" transform="translate(0,1334.08)" d="M80,0h1246" style="stroke: rgb(255, 255, 255); stroke-opacity: 1; stroke-width: 1px;"/><path class="ygrid crisp" transform="translate(0,1139.34)" d="M80,0h1246" style="stroke: rgb(255, 255, 255); stroke-opacity: 1; stroke-width: 1px;"/><path class="ygrid crisp" transform="translate(0,944.6)" d="M80,0h1246" style="stroke: rgb(255, 255, 255); stroke-opacity: 1; stroke-width: 1px;"/><path class="ygrid crisp" transform="translate(0,749.86)" d="M80,0h1246" style="stroke: rgb(255, 255, 255); stroke-opacity: 1; stroke-width: 1px;"/><path class="ygrid crisp" transform="translate(0,555.12)" d="M80,0h1246" style="stroke: rgb(255, 255, 255); stroke-opacity: 1; stroke-width: 1px;"/><path class="ygrid crisp" transform="translate(0,360.38)" d="M80,0h1246" style="stroke: rgb(255, 255, 255); stroke-opacity: 1; stroke-width: 1px;"/><path class="ygrid crisp" transform="translate(0,165.64)" d="M80,0h1246" style="stroke: rgb(255, 255, 255); stroke-opacity: 1; stroke-width: 1px;"/></g></g><g class="zerolinelayer"/><path class="xlines-below"/><path class="ylines-below"/><g class="overlines-below"/><g class="xaxislayer-below"/><g class="yaxislayer-below"/><g class="overaxes-below"/><g class="plot" transform="translate(80,60)" clip-path="url(#clip2d4cc0xyplot)"><g class="scatterlayer mlayer"><g class="trace scatter trace04c425" style="stroke-miterlimit: 2; opacity: 1;"><g class="fills"/><g class="errorbars"/><g class="lines"/><g class="points"><path class="point" transform="translate(726.74,1092.79)" d="M12.55,0A12.55,12.55 0 1,1 0,-12.55A12.55,12.55 0 0,1 12.55,0Z" style="opacity: 0.7; stroke-width: 1px; fill: rgb(214, 39, 40); fill-opacity: 1; stroke: rgb(0, 0, 0); stroke-opacity: 1;"/><path class="point" transform="translate(740.23,1279.99)" d="M10.75,0A10.75,10.75 0 1,1 0,-10.75A10.75,10.75 0 0,1 10.75,0Z" style="opacity: 0.7; stroke-width: 1px; fill: rgb(214, 39, 40); fill-opacity: 1; stroke: rgb(0, 0, 0); stroke-opacity: 1;"/><path class="point" transform="translate(700.73,912.23)" d="M4.23,0A4.23,4.23 0 1,1 0,-4.23A4.23,4.23 0 0,1 4.23,0Z" style="opacity: 0.7; stroke-width: 1px; fill: rgb(214, 39, 40); fill-opacity: 1; stroke: rgb(0, 0, 0); stroke-opacity: 1;"/><path class="point" transform="translate(1012.25,341.3)" d="M1.45,0A1.45,1.45 0 1,1 0,-1.45A1.45,1.45 0 0,1 1.45,0Z" style="opacity: 0.7; stroke-width: 1px; fill: rgb(214, 39, 40); fill-opacity: 1; stroke: rgb(0, 0, 0); stroke-opacity: 1;"/></g><g class="text"><g class="textpoint" transform="translate(0,-7.199999999999999)"><text x="726.74" y="1092.79" text-anchor="middle" style="font-family: 'Open Sans', verdana, arial, sans-serif; font-size: 18px; fill: rgb(42, 63, 95); fill-opacity: 1; white-space: pre;"><tspan class="line" dy="0em" x="726.74" y="1092.79">suggestion</tspan><tspan class="line" dy="1.3em" x="726.74" y="1092.79">testimonials</tspan></text></g><g class="textpoint" transform="translate(0,-7.199999999999999)"><text x="740.23" y="1279.99" text-anchor="middle" style="font-family: 'Open Sans', verdana, arial, sans-serif; font-size: 18px; fill: rgb(42, 63, 95); fill-opacity: 1; white-space: pre;"><tspan class="line" dy="0em" x="740.23" y="1279.99">collectables</tspan><tspan class="line" dy="1.3em" x="740.23" y="1279.99">departments</tspan></text></g><g class="textpoint" transform="translate(0,-7.199999999999999)"><text x="700.73" y="912.23" text-anchor="middle" style="font-family: 'Open Sans', verdana, arial, sans-serif; font-size: 18px; fill: rgb(42, 63, 95); fill-opacity: 1; white-space: pre;"><tspan class="line" dy="0em" x="700.73" y="912.23">toolbar</tspan><tspan class="line" dy="1.3em" x="700.73" y="912.23">portfolio</tspan></text></g><g class="textpoint" transform="translate(0,4.5)"><text x="1012.25" y="341.3" text-anchor="middle" style="font-family: 'Open Sans', verdana, arial, sans-serif; font-size: 18px; fill: rgb(42, 63, 95); fill-opacity: 1; white-space: pre;">filter collect</text></g></g></g><g class="trace scatter trace5a6cd4" style="stroke-miterlimit: 2; opacity: 1;"><g class="fills"/><g class="errorbars"/><g class="lines"/><g class="points"><path class="point" transform="translate(727.15,578.56)" d="M14.14,0A14.14,14.14 0 1,1 0,-14.14A14.14,14.14 0 0,1 14.14,0Z" style="opacity: 0.7; stroke-width: 1px; fill: rgb(31, 119, 180); fill-opacity: 1; stroke: rgb(0, 0, 0); stroke-opacity: 1;"/><path class="point" transform="translate(130.36,216.16)" d="M13.84,0A13.84,13.84 0 1,1 0,-13.84A13.84,13.84 0 0,1 13.84,0Z" style="opacity: 0.7; stroke-width: 1px; fill: rgb(31, 119, 180); fill-opacity: 1; stroke: rgb(0, 0, 0); stroke-opacity: 1;"/><path class="point" transform="translate(1095,1077.04)" d="M12.43,0A12.43,12.43 0 1,1 0,-12.43A12.43,12.43 0 0,1 12.43,0Z" style="opacity: 0.7; stroke-width: 1px; fill: rgb(31, 119, 180); fill-opacity: 1; stroke: rgb(0, 0, 0); stroke-opacity: 1;"/><path class="point" transform="translate(663.99,853.2)" d="M12.39,0A12.39,12.39 0 1,1 0,-12.39A12.39,12.39 0 0,1 12.39,0Z" style="opacity: 0.7; stroke-width: 1px; fill: rgb(31, 119, 180); fill-opacity: 1; stroke: rgb(0, 0, 0); stroke-opacity: 1;"/></g><g class="text"><g class="textpoint" transform="translate(0,-30.6)"><text x="727.15" y="578.56" text-anchor="middle" style="font-family: 'Open Sans', verdana, arial, sans-serif; font-size: 18px; fill: rgb(42, 63, 95); fill-opacity: 1; white-space: pre;"><tspan class="line" dy="0em" x="727.15" y="578.56">celtic</tspan><tspan class="line" dy="1.3em" x="727.15" y="578.56">automation</tspan><tspan class="line" dy="2.6em" x="727.15" y="578.56">patients</tspan><tspan class="line" dy="3.9000000000000004em" x="727.15" y="578.56">sectors</tspan></text></g><g class="textpoint" transform="translate(0,-7.199999999999999)"><text x="130.36" y="216.16" text-anchor="middle" style="font-family: 'Open Sans', verdana, arial, sans-serif; font-size: 18px; fill: rgb(42, 63, 95); fill-opacity: 1; white-space: pre;"><tspan class="line" dy="0em" x="130.36" y="216.16">mirrors</tspan><tspan class="line" dy="1.3em" x="130.36" y="216.16">administration</tspan></text></g><g class="textpoint" transform="translate(0,-7.199999999999999)"><text x="1095" y="1077.04" text-anchor="middle" style="font-family: 'Open Sans', verdana, arial, sans-serif; font-size: 18px; fill: rgb(42, 63, 95); fill-opacity: 1; white-space: pre;"><tspan class="line" dy="0em" x="1095" y="1077.04">turtle</tspan><tspan class="line" dy="1.3em" x="1095" y="1077.04">electronic</tspan></text></g><g class="textpoint" transform="translate(0,-30.6)"><text x="663.99" y="853.2" text-anchor="middle" style="font-family: 'Open Sans', verdana, arial, sans-serif; font-size: 18px; fill: rgb(42, 63, 95); fill-opacity: 1; white-space: pre;"><tspan class="line" dy="0em" x="663.99" y="853.2">retirement</tspan><tspan class="line" dy="1.3em" x="663.99" y="853.2">privilege</tspan><tspan class="line" dy="2.6em" x="663.99" y="853.2">pathology</tspan><tspan class="line" dy="3.9000000000000004em" x="663.99" y="853.2">sydney</tspan></text></g></g></g><g class="trace scatter tracee7992e" style="stroke-miterlimit: 2; opacity: 1;"><g class="fills"/><g class="errorbars"/><g class="lines"/><g class="points"><path class="point" transform="translate(551.88,83.2)" d="M13.6,0A13.6,13.6 0 1,1 0,-13.6A13.6,13.6 0 0,1 13.6,0Z" style="opacity: 0.7; stroke-width: 1px; fill: rgb(127, 127, 127); fill-opacity: 1; stroke: rgb(0, 0, 0); stroke-opacity: 1;"/><path class="point" transform="translate(916.5,297.99)" d="M11.33,0A11.33,11.33 0 1,1 0,-11.33A11.33,11.33 0 0,1 11.33,0Z" style="opacity: 0.7; stroke-width: 1px; fill: rgb(127, 127, 127); fill-opacity: 1; stroke: rgb(0, 0, 0); stroke-opacity: 1;"/><path class="point" transform="translate(825.06,120.07)" d="M6.89,0A6.89,6.89 0 1,1 0,-6.89A6.89,6.89 0 0,1 6.89,0Z" style="opacity: 0.7; stroke-width: 1px; fill: rgb(127, 127, 127); fill-opacity: 1; stroke: rgb(0, 0, 0); stroke-opacity: 1;"/><path class="point" transform="translate(897.27,1082.28)" d="M6.2,0A6.2,6.2 0 1,1 0,-6.2A6.2,6.2 0 0,1 6.2,0Z" style="opacity: 0.7; stroke-width: 1px; fill: rgb(127, 127, 127); fill-opacity: 1; stroke: rgb(0, 0, 0); stroke-opacity: 1;"/></g><g class="text"><g class="textpoint" transform="translate(0,-7.199999999999999)"><text x="551.88" y="83.2" text-anchor="middle" style="font-family: 'Open Sans', verdana, arial, sans-serif; font-size: 18px; fill: rgb(42, 63, 95); fill-opacity: 1; white-space: pre;"><tspan class="line" dy="0em" x="551.88" y="83.2">pichunter</tspan><tspan class="line" dy="1.3em" x="551.88" y="83.2">olympus</tspan></text></g><g class="textpoint" transform="translate(0,-7.199999999999999)"><text x="916.5" y="297.99" text-anchor="middle" style="font-family: 'Open Sans', verdana, arial, sans-serif; font-size: 18px; fill: rgb(42, 63, 95); fill-opacity: 1; white-space: pre;"><tspan class="line" dy="0em" x="916.5" y="297.99">cycling</tspan><tspan class="line" dy="1.3em" x="916.5" y="297.99">adaptive</tspan></text></g><g class="textpoint" transform="translate(0,-18.9)"><text x="825.06" y="120.07" text-anchor="middle" style="font-family: 'Open Sans', verdana, arial, sans-serif; font-size: 18px; fill: rgb(42, 63, 95); fill-opacity: 1; white-space: pre;"><tspan class="line" dy="0em" x="825.06" y="120.07">courtesy</tspan><tspan class="line" dy="1.3em" x="825.06" y="120.07">textiles</tspan><tspan class="line" dy="2.6em" x="825.06" y="120.07">diameter</tspan></text></g><g class="textpoint" transform="translate(0,4.5)"><text x="897.27" y="1082.28" text-anchor="middle" style="font-family: 'Open Sans', verdana, arial, sans-serif; font-size: 18px; fill: rgb(42, 63, 95); fill-opacity: 1; white-space: pre;">auction causes</text></g></g></g><g class="trace scatter trace7bfd2d" style="stroke-miterlimit: 2; opacity: 1;"><g class="fills"/><g class="errorbars"/><g class="lines"/><g class="points"><path class="point" transform="translate(1173.05,168.32)" d="M9.53,0A9.53,9.53 0 1,1 0,-9.53A9.53,9.53 0 0,1 9.53,0Z" style="opacity: 0.7; stroke-width: 1px; fill: rgb(188, 189, 34); fill-opacity: 1; stroke: rgb(0, 0, 0); stroke-opacity: 1;"/><path class="point" transform="translate(901.98,358.32)" d="M8.56,0A8.56,8.56 0 1,1 0,-8.56A8.56,8.56 0 0,1 8.56,0Z" style="opacity: 0.7; stroke-width: 1px; fill: rgb(188, 189, 34); fill-opacity: 1; stroke: rgb(0, 0, 0); stroke-opacity: 1;"/><path class="point" transform="translate(70.92,972.63)" d="M7.71,0A7.71,7.71 0 1,1 0,-7.71A7.71,7.71 0 0,1 7.71,0Z" style="opacity: 0.7; stroke-width: 1px; fill: rgb(188, 189, 34); fill-opacity: 1; stroke: rgb(0, 0, 0); stroke-opacity: 1;"/></g><g class="text"><g class="textpoint" transform="translate(0,-7.199999999999999)"><text x="1173.05" y="168.32" text-anchor="middle" style="font-family: 'Open Sans', verdana, arial, sans-serif; font-size: 18px; fill: rgb(42, 63, 95); fill-opacity: 1; white-space: pre;"><tspan class="line" dy="0em" x="1173.05" y="168.32">operating</tspan><tspan class="line" dy="1.3em" x="1173.05" y="168.32">stevens</tspan></text></g><g class="textpoint" transform="translate(0,-7.199999999999999)"><text x="901.98" y="358.32" text-anchor="middle" style="font-family: 'Open Sans', verdana, arial, sans-serif; font-size: 18px; fill: rgb(42, 63, 95); fill-opacity: 1; white-space: pre;"><tspan class="line" dy="0em" x="901.98" y="358.32">hierarchy</tspan><tspan class="line" dy="1.3em" x="901.98" y="358.32">geology</tspan></text></g><g class="textpoint" transform="translate(0,-18.9)"><text x="70.92" y="972.63" text-anchor="middle" style="font-family: 'Open Sans', verdana, arial, sans-serif; font-size: 18px; fill: rgb(42, 63, 95); fill-opacity: 1; white-space: pre;"><tspan class="line" dy="0em" x="70.92" y="972.63">simulation</tspan><tspan class="line" dy="1.3em" x="70.92" y="972.63">allocated</tspan><tspan class="line" dy="2.6em" x="70.92" y="972.63">wellington</tspan></text></g></g></g></g></g><g class="overplot"/><path class="xlines-above crisp" d="M0,0" style="fill: none;"/><path class="ylines-above crisp" d="M0,0" style="fill: none;"/><g class="overlines-above"/><g class="xaxislayer-above"><g class="xtick"><text text-anchor="middle" x="0" y="1439" transform="translate(233.08,0)" style="font-family: 'Open Sans', verdana, arial, sans-serif; font-size: 18px; fill: rgb(42, 63, 95); fill-opacity: 1; white-space: pre; opacity: 1;">2</text></g><g class="xtick"><text text-anchor="middle" x="0" y="1439" style="font-family: 'Open Sans', verdana, arial, sans-serif; font-size: 18px; fill: rgb(42, 63, 95); fill-opacity: 1; white-space: pre; opacity: 1;" transform="translate(397.93,0)">4</text></g><g class="xtick"><text text-anchor="middle" x="0" y="1439" style="font-family: 'Open Sans', verdana, arial, sans-serif; font-size: 18px; fill: rgb(42, 63, 95); fill-opacity: 1; white-space: pre; opacity: 1;" transform="translate(562.77,0)">6</text></g><g class="xtick"><text text-anchor="middle" x="0" y="1439" style="font-family: 'Open Sans', verdana, arial, sans-serif; font-size: 18px; fill: rgb(42, 63, 95); fill-opacity: 1; white-space: pre; opacity: 1;" transform="translate(727.62,0)">8</text></g><g class="xtick"><text text-anchor="middle" x="0" y="1439" style="font-family: 'Open Sans', verdana, arial, sans-serif; font-size: 18px; fill: rgb(42, 63, 95); fill-opacity: 1; white-space: pre; opacity: 1;" transform="translate(892.47,0)">10</text></g><g class="xtick"><text text-anchor="middle" x="0" y="1439" style="font-family: 'Open Sans', verdana, arial, sans-serif; font-size: 18px; fill: rgb(42, 63, 95); fill-opacity: 1; white-space: pre; opacity: 1;" transform="translate(1057.3200000000002,0)">12</text></g><g class="xtick"><text text-anchor="middle" x="0" y="1439" style="font-family: 'Open Sans', verdana, arial, sans-serif; font-size: 18px; fill: rgb(42, 63, 95); fill-opacity: 1; white-space: pre; opacity: 1;" transform="translate(1222.17,0)">14</text></g></g><g class="yaxislayer-above"><g class="ytick"><text text-anchor="end" x="79" y="6.3" transform="translate(0,1334.08)" style="font-family: 'Open Sans', verdana, arial, sans-serif; font-size: 18px; fill: rgb(42, 63, 95); fill-opacity: 1; white-space: pre; opacity: 1;">2</text></g><g class="ytick"><text text-anchor="end" x="79" y="6.3" style="font-family: 'Open Sans', verdana, arial, sans-serif; font-size: 18px; fill: rgb(42, 63, 95); fill-opacity: 1; white-space: pre; opacity: 1;" transform="translate(0,1139.34)">4</text></g><g class="ytick"><text text-anchor="end" x="79" y="6.3" style="font-family: 'Open Sans', verdana, arial, sans-serif; font-size: 18px; fill: rgb(42, 63, 95); fill-opacity: 1; white-space: pre; opacity: 1;" transform="translate(0,944.6)">6</text></g><g class="ytick"><text text-anchor="end" x="79" y="6.3" style="font-family: 'Open Sans', verdana, arial, sans-serif; font-size: 18px; fill: rgb(42, 63, 95); fill-opacity: 1; white-space: pre; opacity: 1;" transform="translate(0,749.86)">8</text></g><g class="ytick"><text text-anchor="end" x="79" y="6.3" style="font-family: 'Open Sans', verdana, arial, sans-serif; font-size: 18px; fill: rgb(42, 63, 95); fill-opacity: 1; white-space: pre; opacity: 1;" transform="translate(0,555.12)">10</text></g><g class="ytick"><text text-anchor="end" x="79" y="6.3" style="font-family: 'Open Sans', verdana, arial, sans-serif; font-size: 18px; fill: rgb(42, 63, 95); fill-opacity: 1; white-space: pre; opacity: 1;" transform="translate(0,360.38)">12</text></g><g class="ytick"><text text-anchor="end" x="79" y="6.3" style="font-family: 'Open Sans', verdana, arial, sans-serif; font-size: 18px; fill: rgb(42, 63, 95); fill-opacity: 1; white-space: pre; opacity: 1;" transform="translate(0,165.64)">14</text></g></g><g class="overaxes-above"/></g></g><g class="polarlayer"/><g class="smithlayer"/><g class="ternarylayer"/><g class="geolayer"/><g class="funnelarealayer"/><g class="pielayer"/><g class="iciclelayer"/><g class="treemaplayer"/><g class="sunburstlayer"/><g class="glimages"/><defs id="topdefs-2d4cc0"><g class="clips"/><clipPath id="legend2d4cc0"><rect width="137" height="145" x="0" y="0"/></clipPath></defs><g class="layer-above"><g class="imagelayer"/><g class="shapelayer"/></g><g class="infolayer"><g class="legend" pointer-events="all" transform="translate(1350.92,60)"><rect class="bg" shape-rendering="crispEdges" width="137" height="145" x="0" y="0" style="stroke: rgb(68, 68, 68); stroke-opacity: 1; fill: rgb(255, 255, 255); fill-opacity: 1; stroke-width: 0px;"/><g class="scrollbox" transform="" clip-path="url(#legend2d4cc0)"><text class="legendtitletext" text-anchor="start" x="2" y="28.6" style="font-family: 'Open Sans', verdana, arial, sans-serif; font-size: 22px; fill: rgb(42, 63, 95); fill-opacity: 1; white-space: pre;">cluster_name</text><g class="groups" transform=""><g class="traces" transform="translate(0,46.800000000000004)" style="opacity: 1;"><text class="legendtext" text-anchor="start" x="40" y="7.0200000000000005" style="font-family: 'Open Sans', verdana, arial, sans-serif; font-size: 18px; fill: rgb(42, 63, 95); fill-opacity: 1; white-space: pre;">Кластер 0</text><g class="layers" style="opacity: 1;"><g class="legendfill"/><g class="legendlines"/><g class="legendsymbols"><g class="legendpoints"><path class="scatterpts" transform="translate(20,0)" d="M6,0A6,6 0 1,1 0,-6A6,6 0 0,1 6,0Z" style="opacity: 0.7; stroke-width: 2px; fill: rgb(214, 39, 40); fill-opacity: 1; stroke: rgb(0, 0, 0); stroke-opacity: 1;"/></g></g></g><rect class="legendtoggle" x="0" y="-13.200000000000001" width="123.078125" height="26.400000000000002" style="fill: rgb(0, 0, 0); fill-opacity: 0;"/></g></g><g class="groups" transform=""><g class="traces" transform="translate(0,73.2)" style="opacity: 1;"><text class="legendtext" text-anchor="start" x="40" y="7.0200000000000005" style="font-family: 'Open Sans', verdana, arial, sans-serif; font-size: 18px; fill: rgb(42, 63, 95); fill-opacity: 1; white-space: pre;">Кластер 1</text><g class="layers" style="opacity: 1;"><g class="legendfill"/><g class="legendlines"/><g class="legendsymbols"><g class="legendpoints"><path class="scatterpts" transform="translate(20,0)" d="M6,0A6,6 0 1,1 0,-6A6,6 0 0,1 6,0Z" style="opacity: 0.7; stroke-width: 2px; fill: rgb(31, 119, 180); fill-opacity: 1; stroke: rgb(0, 0, 0); stroke-opacity: 1;"/></g></g></g><rect class="legendtoggle" x="0" y="-13.200000000000001" width="123.078125" height="26.400000000000002" style="fill: rgb(0, 0, 0); fill-opacity: 0;"/></g></g><g class="groups" transform=""><g class="traces" transform="translate(0,99.60000000000001)" style="opacity: 1;"><text class="legendtext" text-anchor="start" x="40" y="7.0200000000000005" style="font-family: 'Open Sans', verdana, arial, sans-serif; font-size: 18px; fill: rgb(42, 63, 95); fill-opacity: 1; white-space: pre;">Кластер 2</text><g class="layers" style="opacity: 1;"><g class="legendfill"/><g class="legendlines"/><g class="legendsymbols"><g class="legendpoints"><path class="scatterpts" transform="translate(20,0)" d="M6,0A6,6 0 1,1 0,-6A6,6 0 0,1 6,0Z" style="opacity: 0.7; stroke-width: 2px; fill: rgb(127, 127, 127); fill-opacity: 1; stroke: rgb(0, 0, 0); stroke-opacity: 1;"/></g></g></g><rect class="legendtoggle" x="0" y="-13.200000000000001" width="123.078125" height="26.400000000000002" style="fill: rgb(0, 0, 0); fill-opacity: 0;"/></g></g><g class="groups" transform=""><g class="traces" transform="translate(0,126.00000000000001)" style="opacity: 1;"><text class="legendtext" text-anchor="start" x="40" y="7.0200000000000005" style="font-family: 'Open Sans', verdana, arial, sans-serif; font-size: 18px; fill: rgb(42, 63, 95); fill-opacity: 1; white-space: pre;">Кластер 3</text><g class="layers" style="opacity: 1;"><g class="legendfill"/><g class="legendlines"/><g class="legendsymbols"><g class="legendpoints"><path class="scatterpts" transform="translate(20,0)" d="M6,0A6,6 0 1,1 0,-6A6,6 0 0,1 6,0Z" style="opacity: 0.7; stroke-width: 2px; fill: rgb(188, 189, 34); fill-opacity: 1; stroke: rgb(0, 0, 0); stroke-opacity: 1;"/></g></g></g><rect class="legendtoggle" x="0" y="-13.200000000000001" width="123.078125" height="26.400000000000002" style="fill: rgb(0, 0, 0); fill-opacity: 0;"/></g></g></g><rect class="scrollbar" rx="20" ry="3" width="0" height="0" x="0" y="0" style="fill: rgb(128, 139, 164); fill-opacity: 1;"/></g><g class="g-gtitle"/><g class="g-xtitle"><text class="xtitle" x="703" y="1472.9" text-anchor="middle" style="font-family: 'Open Sans', verdana, arial, sans-serif; font-size: 22px; fill: rgb(42, 63, 95); opacity: 1; font-weight: normal; white-space: pre;">winner's  clusters</text></g><g class="g-ytitle"/></g></svg>