<svg class="main-svg" xmlns="http://www.w3.org/2000/svg" xmlns:xlink="http://www.w3.org/1999/xlink" width="1500" height="1500" style="" viewBox="0 0 1500 1500"><rect x="0" y="0" width="1500" height="1500" style="fill: rgb(255, 255, 255); fill-opacity: 1;"/><defs id="defs-cff597"><g class="clips"><clipPath id="clipcff597xyplot" class="plotclip"><rect width="1254" height="1360"/></clipPath><clipPath class="axesclip" id="clipcff597x"><rect x="80" y="0" width="1254" height="1500"/></clipPath><clipPath class="axesclip" id="clipcff597y"><rect x="0" y="60" width="1500" height="1360"/></clipPath><clipPath class="axesclip" id="clipcff597xy"><rect x="80" y="60" width="1254" height="1360"/></clipPath></g><g class="gradients"/><g class="patterns"/></defs><g class="bglayer"/><g class="layer-below"><g class="imagelayer"/><g class="shapelayer"/></g><g class="cartesianlayer"><g class="subplot xy"><g class="layer-subplot"><g class="shapelayer"/><g class="imagelayer"/></g><g class="minor-gridlayer"><g class="x"/><g class="y"/></g><g class="gridlayer"><g class="x"><path class="xgrid crisp" transform="translate(234.02,0)" d="M0,60v1360" style="stroke: rgb(255, 255, 255); stroke-opacity: 1; stroke-width: 1px;"/><path class="xgrid crisp" transform="translate(399.94,0)" d="M0,60v1360" style="stroke: rgb(255, 255, 255); stroke-opacity: 1; stroke-width: 1px;"/><path class="xgrid crisp" transform="translate(565.86,0)" d="M0,60v1360" style="stroke: rgb(255, 255, 255); stroke-opacity: 1; stroke-width: 1px;"/><path class="xgrid crisp" transform="translate(731.79,0)" d="M0,60v1360" style="stroke: rgb(255, 255, 255); stroke-opacity: 1; stroke-width: 1px;"/><path class="xgrid crisp" transform="translate(897.71,0)" d="M0,60v1360" style="stroke: rgb(255, 255, 255); stroke-opacity: 1; stroke-width: 1px;"/><path class="xgrid crisp" transform="translate(1063.6399999999999,0)" d="M0,60v1360" style="stroke: rgb(255, 255, 255); stroke-opacity: 1; stroke-width: 1px;"/><path class="xgrid crisp" transform="translate(1229.56,0)" d="M0,60v1360" style="stroke: rgb(255, 255, 255); stroke-opacity: 1; stroke-width: 1px;"/></g><g class="y"><path class="ygrid crisp" transform="translate(0,1334.08)" d="M80,0h1254" style="stroke: rgb(255, 255, 255); stroke-opacity: 1; stroke-width: 1px;"/><path class="ygrid crisp" transform="translate(0,1139.34)" d="M80,0h1254" style="stroke: rgb(255, 255, 255); stroke-opacity: 1; stroke-width: 1px;"/><path class="ygrid crisp" transform="translate(0,944.6)" d="M80,0h1254" style="stroke: rgb(255, 255, 255); stroke-opacity: 1; stroke-width: 1px;"/><path class="ygrid crisp" transform="translate(0,749.86)" d="M80,0h1254" style="stroke: rgb(255, 255, 255); stroke-opacity: 1; stroke-width: 1px;"/><path class="ygrid crisp" transform="translate(0,555.12)" d="M80,0h1254" style="stroke: rgb(255, 255, 255); stroke-opacity: 1; stroke-width: 1px;"/><path class="ygrid crisp" transform="translate(0,360.38)" d="M80,0h1254" style="stroke: rgb(255, 255, 255); stroke-opacity: 1; stroke-width: 1px;"/><path class="ygrid crisp" transform="translate(0,165.64)" d="M80,0h1254" style="stroke: rgb(255, 255, 255); stroke-opacity: 1; stroke-width: 1px;"/></g></g><g class="zerolinelayer"/><path class="xlines-below"/><path class="ylines-below"/><g class="overlines-below"/><g class="xaxislayer-below"/><g class="yaxislayer-below"/><g class="overaxes-below"/><g class="plot" transform="translate(80,60)" clip-path="url(#clipcff597xyplot)"><g class="scatterlayer mlayer"><g class="trace scatter trace5c3ce4" style="stroke-miterlimit: 2; opacity: 1;"><g class="fills"/><g class="errorbars"/><g class="lines"/><g class="points"><path class="point" transform="translate(731.42,1092.79)" d="M12.55,0A12.55,12.55 0 1,1 0,-12.55A12.55,12.55 0 0,1 12.55,0Z" style="opacity: 0.7; stroke-width: 1px; fill: rgb(148, 103, 189); fill-opacity: 1; stroke: rgb(0, 0, 0); stroke-opacity: 1;"/><path class="point" transform="translate(745.01,1279.99)" d="M10.75,0A10.75,10.75 0 1,1 0,-10.75A10.75,10.75 0 0,1 10.75,0Z" style="opacity: 0.7; stroke-width: 1px; fill: rgb(148, 103, 189); fill-opacity: 1; stroke: rgb(0, 0, 0); stroke-opacity: 1;"/><path class="point" transform="translate(705.25,912.23)" d="M4.23,0A4.23,4.23 0 1,1 0,-4.23A4.23,4.23 0 0,1 4.23,0Z" style="opacity: 0.7; stroke-width: 1px; fill: rgb(148, 103, 189); fill-opacity: 1; stroke: rgb(0, 0, 0); stroke-opacity: 1;"/><path class="point" transform="translate(1018.8,341.3)" d="M1.45,0A1.45,1.45 0 1,1 0,-1.45A1.45,1.45 0 0,1 1.45,0Z" style="opacity: 0.7; stroke-width: 1px; fill: rgb(148, 103, 189); fill-opacity: 1; stroke: rgb(0, 0, 0); stroke-opacity: 1;"/></g><g class="text"><g class="textpoint" transform="translate(0,-44.5936580837231)"><text x="731.42" y="1092.79" text-anchor="middle" style="font-family: 'Open Sans', verdana, arial, sans-serif; font-size: 18px; fill: rgb(42, 63, 95); fill-opacity: 1; white-space: pre;"><tspan class="line" dy="0em" x="731.42" y="1092.79">suggestion</tspan><tspan class="line" dy="1.3em" x="731.42" y="1092.79">testimonials</tspan></text></g><g class="textpoint" transform="translate(0,27.932365859335242)"><text x="745.01" y="1279.99" text-anchor="middle" style="font-family: 'Open Sans', verdana, arial, sans-serif; font-size: 18px; fill: rgb(42, 63, 95); fill-opacity: 1; white-space: pre;"><tspan class="line" dy="0em" x="745.01" y="1279.99">collectables</tspan><tspan class="line" dy="1.3em" x="745.01" y="1279.99">departments</tspan></text></g><g class="textpoint" transform="translate(0,-34.182507051987564)"><text x="705.25" y="912.23" text-anchor="middle" style="font-family: 'Open Sans', verdana, arial, sans-serif; font-size: 18px; fill: rgb(42, 63, 95); fill-opacity: 1; white-space: pre;"><tspan class="line" dy="0em" x="705.25" y="912.23">toolbar</tspan><tspan class="line" dy="1.3em" x="705.25" y="912.23">portfolio</tspan></text></g><g class="textpoint" transform="translate(0,16.314696275823763)"><text x="1018.8" y="341.3" text-anchor="middle" style="font-family: 'Open Sans', verdana, arial, sans-serif; font-size: 18px; fill: rgb(42, 63, 95); fill-opacity: 1; white-space: pre;">filter collect</text></g></g></g><g class="trace scatter trace951bbb" style="stroke-miterlimit: 2; opacity: 1;"><g class="fills"/><g class="errorbars"/><g class="lines"/><g class="points"><path class="point" transform="translate(731.84,578.56)" d="M14.14,0A14.14,14.14 0 1,1 0,-14.14A14.14,14.14 0 0,1 14.14,0Z" style="opacity: 0.7; stroke-width: 1px; fill: rgb(140, 86, 75); fill-opacity: 1; stroke: rgb(0, 0, 0); stroke-opacity: 1;"/><path class="point" transform="translate(131.15,216.16)" d="M13.84,0A13.84,13.84 0 1,1 0,-13.84A13.84,13.84 0 0,1 13.84,0Z" style="opacity: 0.7; stroke-width: 1px; fill: rgb(140, 86, 75); fill-opacity: 1; stroke: rgb(0, 0, 0); stroke-opacity: 1;"/><path class="point" transform="translate(1102.09,1077.04)" d="M12.43,0A12.43,12.43 0 1,1 0,-12.43A12.43,12.43 0 0,1 12.43,0Z" style="opacity: 0.7; stroke-width: 1px; fill: rgb(140, 86, 75); fill-opacity: 1; stroke: rgb(0, 0, 0); stroke-opacity: 1;"/><path class="point" transform="translate(668.26,853.2)" d="M12.39,0A12.39,12.39 0 1,1 0,-12.39A12.39,12.39 0 0,1 12.39,0Z" style="opacity: 0.7; stroke-width: 1px; fill: rgb(140, 86, 75); fill-opacity: 1; stroke: rgb(0, 0, 0); stroke-opacity: 1;"/></g><g class="text"><g class="textpoint" transform="translate(0,-93.37766952966369)"><text x="731.84" y="578.56" text-anchor="middle" style="font-family: 'Open Sans', verdana, arial, sans-serif; font-size: 18px; fill: rgb(42, 63, 95); fill-opacity: 1; white-space: pre;"><tspan class="line" dy="0em" x="731.84" y="578.56">celtic</tspan><tspan class="line" dy="1.3em" x="731.84" y="578.56">automation</tspan><tspan class="line" dy="2.6em" x="731.84" y="578.56">patients</tspan><tspan class="line" dy="3.9000000000000004em" x="731.84" y="578.56">sectors</tspan></text></g><g class="textpoint" transform="translate(0,31.80108406158543)"><text x="131.15" y="216.16" text-anchor="middle" style="font-family: 'Open Sans', verdana, arial, sans-serif; font-size: 18px; fill: rgb(42, 63, 95); fill-opacity: 1; white-space: pre;"><tspan class="line" dy="0em" x="131.15" y="216.16">mirrors</tspan><tspan class="line" dy="1.3em" x="131.15" y="216.16">administration</tspan></text></g><g class="textpoint" transform="translate(0,-44.43827150325703)"><text x="1102.09" y="1077.04" text-anchor="middle" style="font-family: 'Open Sans', verdana, arial, sans-serif; font-size: 18px; fill: rgb(42, 63, 95); fill-opacity: 1; white-space: pre;"><tspan class="line" dy="0em" x="1102.09" y="1077.04">turtle</tspan><tspan class="line" dy="1.3em" x="1102.09" y="1077.04">electronic</tspan></text></g><g class="textpoint" transform="translate(0,29.98799474246231)"><text x="668.26" y="853.2" text-anchor="middle" style="font-family: 'Open Sans', verdana, arial, sans-serif; font-size: 18px; fill: rgb(42, 63, 95); fill-opacity: 1; white-space: pre;"><tspan class="line" dy="0em" x="668.26" y="853.2">retirement</tspan><tspan class="line" dy="1.3em" x="668.26" y="853.2">privilege</tspan><tspan class="line" dy="2.6em" x="668.26" y="853.2">pathology</tspan><tspan class="line" dy="3.9000000000000004em" x="668.26" y="853.2">sydney</tspan></text></g></g></g><g class="trace scatter traceb1b2d4" style="stroke-miterlimit: 2; opacity: 1;"><g class="fills"/><g class="errorbars"/><g class="lines"/><g class="points"><path class="point" transform="translate(555.42,83.2)" d="M13.6,0A13.6,13.6 0 1,1 0,-13.6A13.6,13.6 0 0,1 13.6,0Z" style="opacity: 0.7; stroke-width: 1px; fill: rgb(188, 189, 34); fill-opacity: 1; stroke: rgb(0, 0, 0); stroke-opacity: 1;"/><path class="point" transform="translate(922.42,297.99)" d="M11.33,0A11.33,11.33 0 1,1 0,-11.33A11.33,11.33 0 0,1 11.33,0Z" style="opacity: 0.7; stroke-width: 1px; fill: rgb(188, 189, 34); fill-opacity: 1; stroke: rgb(0, 0, 0); stroke-opacity: 1;"/><path class="point" transform="translate(830.38,120.07)" d="M6.89,0A6.89,6.89 0 1,1 0,-6.89A6.89,6.89 0 0,1 6.89,0Z" style="opacity: 0.7; stroke-width: 1px; fill: rgb(188, 189, 34); fill-opacity: 1; stroke: rgb(0, 0, 0); stroke-opacity: 1;"/><path class="point" transform="translate(903.07,1082.28)" d="M6.2,0A6.2,6.2 0 1,1 0,-6.2A6.2,6.2 0 0,1 6.2,0Z" style="opacity: 0.7; stroke-width: 1px; fill: rgb(188, 189, 34); fill-opacity: 1; stroke: rgb(0, 0, 0); stroke-opacity: 1;"/></g><g class="text"><g class="textpoint" transform="translate(0,-45.89788737647858)"><text x="555.42" y="83.2" text-anchor="middle" style="font-family: 'Open Sans', verdana, arial, sans-serif; font-size: 18px; fill: rgb(42, 63, 95); fill-opacity: 1; white-space: pre;"><tspan class="line" dy="0em" x="555.42" y="83.2">pichunter</tspan><tspan class="line" dy="1.3em" x="555.42" y="83.2">olympus</tspan></text></g><g class="textpoint" transform="translate(0,28.667115258304932)"><text x="922.42" y="297.99" text-anchor="middle" style="font-family: 'Open Sans', verdana, arial, sans-serif; font-size: 18px; fill: rgb(42, 63, 95); fill-opacity: 1; white-space: pre;"><tspan class="line" dy="0em" x="922.42" y="297.99">cycling</tspan><tspan class="line" dy="1.3em" x="922.42" y="297.99">adaptive</tspan></text></g><g class="textpoint" transform="translate(0,-60.91289260491788)"><text x="830.38" y="120.07" text-anchor="middle" style="font-family: 'Open Sans', verdana, arial, sans-serif; font-size: 18px; fill: rgb(42, 63, 95); fill-opacity: 1; white-space: pre;"><tspan class="line" dy="0em" x="830.38" y="120.07">courtesy</tspan><tspan class="line" dy="1.3em" x="830.38" y="120.07">textiles</tspan><tspan class="line" dy="2.6em" x="830.38" y="120.07">diameter</tspan></text></g><g class="textpoint" transform="translate(0,22.25518004474074)"><text x="903.07" y="1082.28" text-anchor="middle" style="font-family: 'Open Sans', verdana, arial, sans-serif; font-size: 18px; fill: rgb(42, 63, 95); fill-opacity: 1; white-space: pre;">auction causes</text></g></g></g><g class="trace scatter trace72ac30" style="stroke-miterlimit: 2; opacity: 1;"><g class="fills"/><g class="errorbars"/><g class="lines"/><g class="points"><path class="point" transform="translate(1180.65,168.32)" d="M9.53,0A9.53,9.53 0 1,1 0,-9.53A9.53,9.53 0 0,1 9.53,0Z" style="opacity: 0.7; stroke-width: 1px; fill: rgb(44, 160, 44); fill-opacity: 1; stroke: rgb(0, 0, 0); stroke-opacity: 1;"/><path class="point" transform="translate(907.81,358.32)" d="M8.56,0A8.56,8.56 0 1,1 0,-8.56A8.56,8.56 0 0,1 8.56,0Z" style="opacity: 0.7; stroke-width: 1px; fill: rgb(44, 160, 44); fill-opacity: 1; stroke: rgb(0, 0, 0); stroke-opacity: 1;"/><path class="point" transform="translate(71.32,972.63)" d="M7.71,0A7.71,7.71 0 1,1 0,-7.71A7.71,7.71 0 0,1 7.71,0Z" style="opacity: 0.7; stroke-width: 1px; fill: rgb(44, 160, 44); fill-opacity: 1; stroke: rgb(0, 0, 0); stroke-opacity: 1;"/></g><g class="text"><g class="textpoint" transform="translate(0,-40.80703963631267)"><text x="1180.65" y="168.32" text-anchor="middle" style="font-family: 'Open Sans', verdana, arial, sans-serif; font-size: 18px; fill: rgb(42, 63, 95); fill-opacity: 1; white-space: pre;"><tspan class="line" dy="0em" x="1180.65" y="168.32">operating</tspan><tspan class="line" dy="1.3em" x="1180.65" y="168.32">stevens</tspan></text></g><g class="textpoint" transform="translate(0,25.20355086451512)"><text x="907.81" y="358.32" text-anchor="middle" style="font-family: 'Open Sans', verdana, arial, sans-serif; font-size: 18px; fill: rgb(42, 63, 95); fill-opacity: 1; white-space: pre;"><tspan class="line" dy="0em" x="907.81" y="358.32">hierarchy</tspan><tspan class="line" dy="1.3em" x="907.81" y="358.32">geology</tspan></text></g><g class="textpoint" transform="translate(0,-61.9385020112319)"><text x="71.32" y="972.63" text-anchor="middle" style="font-family: 'Open Sans', verdana, arial, sans-serif; font-size: 18px; fill: rgb(42, 63, 95); fill-opacity: 1; white-space: pre;"><tspan class="line" dy="0em" x="71.32" y="972.63">simulation</tspan><tspan class="line" dy="1.3em" x="71.32" y="972.63">allocated</tspan><tspan class="line" dy="2.6em" x="71.32" y="972.63">wellington</tspan></text></g></g></g></g></g><g class="overplot"/><path class="xlines-above crisp" d="M0,0" style="fill: none;"/><path class="ylines-above crisp" d="M0,0" style="fill: none;"/><g class="overlines-above"/><g class="xaxislayer-above"><g class="xtick"><text text-anchor="middle" x="0" y="1439" transform="translate(234.02,0)" style="font-family: 'Open Sans', verdana, arial, sans-serif; font-size: 18px; fill: rgb(42, 63, 95); fill-opacity: 1; white-space: pre; opacity: 1;">2</text></g><g class="xtick"><text text-anchor="middle" x="0" y="1439" style="font-family: 'Open Sans', verdana, arial, sans-serif; font-size: 18px; fill: rgb(42, 63, 95); fill-opacity: 1; white-space: pre; opacity: 1;" transform="translate(399.94,0)">4</text></g><g class="xtick"><text text-anchor="middle" x="0" y="1439" style="font-family: 'Open Sans', verdana, arial, sans-serif; font-size: 18px; fill: rgb(42, 63, 95); fill-opacity: 1; white-space: pre; opacity: 1;" transform="translate(565.86,0)">6</text></g><g class="xtick"><text text-anchor="middle" x="0" y="1439" style="font-family: 'Open Sans', verdana, arial, sans-serif; font-size: 18px; fill: rgb(42, 63, 95); fill-opacity: 1; white-space: pre; opacity: 1;" transform="translate(731.79,0)">8</text></g><g class="xtick"><text text-anchor="middle" x="0" y="1439" style="font-family: 'Open Sans', verdana, arial, sans-serif; font-size: 18px; fill: rgb(42, 63, 95); fill-opacity: 1; white-space: pre; opacity: 1;" transform="translate(897.71,0)">10</text></g><g class="xtick"><text text-anchor="middle" x="0" y="1439" style="font-family: 'Open Sans', verdana, arial, sans-serif; font-size: 18px; fill: rgb(42, 63, 95); fill-opacity: 1; white-space: pre; opacity: 1;" transform="translate(1063.6399999999999,0)">12</text></g><g class="xtick"><text text-anchor="middle" x="0" y="1439" style="font-family: 'Open Sans', verdana, arial, sans-serif; font-size: 18px; fill: rgb(42, 63, 95); fill-opacity: 1; white-space: pre; opacity: 1;" transform="translate(1229.56,0)">14</text></g></g><g class="yaxislayer-above"><g class="ytick"><text text-anchor="end" x="79" y="6.3" transform="translate(0,1334.08)" style="font-family: 'Open Sans', verdana, arial, sans-serif; font-size: 18px; fill: rgb(42, 63, 95); fill-opacity: 1; white-space: pre; opacity: 1;">2</text></g><g class="ytick"><text text-anchor="end" x="79" y="6.3" style="font-family: 'Open Sans', verdana, arial, sans-serif; font-size: 18px; fill: rgb(42, 63, 95); fill-opacity: 1; white-space: pre; opacity: 1;" transform="translate(0,1139.34)">4</text></g><g class="ytick"><text text-anchor="end" x="79" y="6.3" style="font-family: 'Open Sans', verdana, arial, sans-serif; font-size: 18px; fill: rgb(42, 63, 95); fill-opacity: 1; white-space: pre; opacity: 1;" transform="translate(0,944.6)">6</text></g><g class="ytick"><text text-anchor="end" x="79" y="6.3" style="font-family: 'Open Sans', verdana, arial, sans-serif; font-size: 18px; fill: rgb(42, 63, 95); fill-opacity: 1; white-space: pre; opacity: 1;" transform="translate(0,749.86)">8</text></g><g class="ytick"><text text-anchor="end" x="79" y="6.3" style="font-family: 'Open Sans', verdana, arial, sans-serif; font-size: 18px; fill: rgb(42, 63, 95); fill-opacity: 1; white-space: pre; opacity: 1;" transform="translate(0,555.12)">10</text></g><g class="ytick"><text text-anchor="end" x="79" y="6.3" style="font-family: 'Open Sans', verdana, arial, sans-serif; font-size: 18px; fill: rgb(42, 63, 95); fill-opacity: 1; white-space: pre; opacity: 1;" transform="translate(0,360.38)">12</text></g><g class="ytick"><text text-anchor="end" x="79" y="6.3" style="font-family: 'Open Sans', verdana, arial, sans-serif; font-size: 18px; fill: rgb(42, 63, 95); fill-opacity: 1; white-space: pre; opacity: 1;" transform="translate(0,165.64)">14</text></g></g><g class="overaxes-above"/></g></g><g class="polarlayer"/><g class="smithlayer"/><g class="ternarylayer"/><g class="geolayer"/><g class="funnelarealayer"/><g class="pielayer"/><g class="iciclelayer"/><g class="treemaplayer"/><g class="sunburstlayer"/><g class="glimages"/><defs id="topdefs-cff597"><g class="clips"/><clipPath id="legendcff597"><rect width="129" height="145" x="0" y="0"/></clipPath></defs><g class="layer-above"><g class="imagelayer"/><g class="shapelayer"/></g><g class="infolayer"><g class="legend" pointer-events="all" transform="translate(1359.08,60)"><rect class="bg" shape-rendering="crispEdges" width="129" height="145" x="0" y="0" style="stroke: rgb(68, 68, 68); stroke-opacity: 1; fill: rgb(255, 255, 255); fill-opacity: 1; stroke-width: 0px;"/><g class="scrollbox" transform="" clip-path="url(#legendcff597)"><text class="legendtitletext" text-anchor="start" x="2" y="28.6" style="font-family: 'Open Sans', verdana, arial, sans-serif; font-size: 22px; fill: rgb(42, 63, 95); fill-opacity: 1; white-space: pre;">Кластеры</text><g class="groups" transform=""><g class="traces" transform="translate(0,46.800000000000004)" style="opacity: 1;"><text class="legendtext" text-anchor="start" x="40" y="7.0200000000000005" style="font-family: 'Open Sans', verdana, arial, sans-serif; font-size: 18px; fill: rgb(42, 63, 95); fill-opacity: 1; white-space: pre;">Кластер 0</text><g class="layers" style="opacity: 1;"><g class="legendfill"/><g class="legendlines"/><g class="legendsymbols"><g class="legendpoints"><path class="scatterpts" transform="translate(20,0)" d="M6,0A6,6 0 1,1 0,-6A6,6 0 0,1 6,0Z" style="opacity: 0.7; stroke-width: 2px; fill: rgb(148, 103, 189); fill-opacity: 1; stroke: rgb(0, 0, 0); stroke-opacity: 1;"/></g></g></g><rect class="legendtoggle" x="0" y="-13.200000000000001" width="123.078125" height="26.400000000000002" style="fill: rgb(0, 0, 0); fill-opacity: 0;"/></g></g><g class="groups" transform=""><g class="traces" transform="translate(0,73.2)" style="opacity: 1;"><text class="legendtext" text-anchor="start" x="40" y="7.0200000000000005" style="font-family: 'Open Sans', verdana, arial, sans-serif; font-size: 18px; fill: rgb(42, 63, 95); fill-opacity: 1; white-space: pre;">Кластер 1</text><g class="layers" style="opacity: 1;"><g class="legendfill"/><g class="legendlines"/><g class="legendsymbols"><g class="legendpoints"><path class="scatterpts" transform="translate(20,0)" d="M6,0A6,6 0 1,1 0,-6A6,6 0 0,1 6,0Z" style="opacity: 0.7; stroke-width: 2px; fill: rgb(140, 86, 75); fill-opacity: 1; stroke: rgb(0, 0, 0); stroke-opacity: 1;"/></g></g></g><rect class="legendtoggle" x="0" y="-13.200000000000001" width="123.078125" height="26.400000000000002" style="fill: rgb(0, 0, 0); fill-opacity: 0;"/></g></g><g class="groups" transform=""><g class="traces" transform="translate(0,99.60000000000001)" style="opacity: 1;"><text class="legendtext" text-anchor="start" x="40" y="7.0200000000000005" style="font-family: 'Open Sans', verdana, arial, sans-serif; font-size: 18px; fill: rgb(42, 63, 95); fill-opacity: 1; white-space: pre;">Кластер 2</text><g class="layers" style="opacity: 1;"><g class="legendfill"/><g class="legendlines"/><g class="legendsymbols"><g class="legendpoints"><path class="scatterpts" transform="translate(20,0)" d="M6,0A6,6 0 1,1 0,-6A6,6 0 0,1 6,0Z" style="opacity: 0.7; stroke-width: 2px; fill: rgb(188, 189, 34); fill-opacity: 1; stroke: rgb(0, 0, 0); stroke-opacity: 1;"/></g></g></g><rect class="legendtoggle" x="0" y="-13.200000000000001" width="123.078125" height="26.400000000000002" style="fill: rgb(0, 0, 0); fill-opacity: 0;"/></g></g><g class="groups" transform=""><g class="traces" transform="translate(0,126.00000000000001)" style="opacity: 1;"><text class="legendtext" text-anchor="start" x="40" y="7.0200000000000005" style="font-family: 'Open Sans', verdana, arial, sans-serif; font-size: 18px; fill: rgb(42, 63, 95); fill-opacity: 1; white-space: pre;">Кластер 3</text><g class="layers" style="opacity: 1;"><g class="legendfill"/><g class="legendlines"/><g class="legendsymbols"><g class="legendpoints"><path class="scatterpts" transform="translate(20,0)" d="M6,0A6,6 0 1,1 0,-6A6,6 0 0,1 6,0Z" style="opacity: 0.7; stroke-width: 2px; fill: rgb(44, 160, 44); fill-opacity: 1; stroke: rgb(0, 0, 0); stroke-opacity: 1;"/></g></g></g><rect class="legendtoggle" x="0" y="-13.200000000000001" width="123.078125" height="26.400000000000002" style="fill: rgb(0, 0, 0); fill-opacity: 0;"/></g></g></g><rect class="scrollbar" rx="20" ry="3" width="0" height="0" x="0" y="0" style="fill: rgb(128, 139, 164); fill-opacity: 1;"/></g><g class="g-gtitle"/><g class="g-xtitle"><text class="xtitle" x="707" y="1472.9" text-anchor="middle" style="font-family: 'Open Sans', verdana, arial, sans-serif; font-size: 22px; fill: rgb(42, 63, 95); opacity: 1; font-weight: normal; white-space: pre;">winner's  clusters</text></g><g class="g-ytitle"/></g></svg>